<svg width="50" height="50" viewBox="0 0 50 50" fill="none" xmlns="http://www.w3.org/2000/svg">
<path d="M25.0076 0C14.5711 0 11.5183 0.0107422 10.9246 0.0595703C8.78299 0.238281 7.44998 0.575195 5.99783 1.29883C4.87869 1.85449 3.99588 2.49902 3.12576 3.40234C1.53885 5.04883 0.577908 7.07519 0.230252 9.4834C0.0613064 10.6523 0.0115017 10.8916 0.00173611 16.8643C-0.00217014 18.8555 0.00173611 21.4756 0.00173611 24.9902C0.00173611 35.4219 0.0134549 38.4717 0.0632595 39.0644C0.236111 41.1494 0.56326 42.4609 1.25564 43.8955C2.57888 46.6416 5.10525 48.7031 8.08084 49.4727C9.11111 49.7383 10.2498 49.8838 11.7107 49.9531C12.3299 49.9805 18.6404 49.999 24.9549 49.999C31.2693 49.999 37.5828 49.9912 38.1873 49.9609C39.8797 49.8809 40.8621 49.749 41.948 49.4687C44.9431 48.6953 47.4236 46.665 48.7732 43.8799C49.4519 42.4795 49.7957 41.1182 49.9519 39.1426C49.9861 38.7119 49.9998 31.8428 49.9998 24.9834C49.9998 18.123 49.9842 11.2666 49.951 10.8359C49.7937 8.82812 49.449 7.47754 48.7488 6.05078C48.1736 4.88281 47.5359 4.00977 46.6092 3.11816C44.9549 1.53809 42.9324 0.576172 40.5222 0.228516C39.3533 0.0605469 39.1209 0.0107422 33.1453 0H25.0076Z" fill="url(#paint0_radial_1606_26475)"/>
<path d="M25.0076 0C14.5711 0 11.5183 0.0107422 10.9246 0.0595703C8.78299 0.238281 7.44998 0.575195 5.99783 1.29883C4.87869 1.85449 3.99588 2.49902 3.12576 3.40234C1.53885 5.04883 0.577908 7.07519 0.230252 9.4834C0.0613064 10.6523 0.0115017 10.8916 0.00173611 16.8643C-0.00217014 18.8555 0.00173611 21.4756 0.00173611 24.9902C0.00173611 35.4219 0.0134549 38.4717 0.0632595 39.0644C0.236111 41.1494 0.56326 42.4609 1.25564 43.8955C2.57888 46.6416 5.10525 48.7031 8.08084 49.4727C9.11111 49.7383 10.2498 49.8838 11.7107 49.9531C12.3299 49.9805 18.6404 49.999 24.9549 49.999C31.2693 49.999 37.5828 49.9912 38.1873 49.9609C39.8797 49.8809 40.8621 49.749 41.948 49.4687C44.9431 48.6953 47.4236 46.665 48.7732 43.8799C49.4519 42.4795 49.7957 41.1182 49.9519 39.1426C49.9861 38.7119 49.9998 31.8428 49.9998 24.9834C49.9998 18.123 49.9842 11.2666 49.951 10.8359C49.7937 8.82812 49.449 7.47754 48.7488 6.05078C48.1736 4.88281 47.5359 4.00977 46.6092 3.11816C44.9549 1.53809 42.9324 0.576172 40.5222 0.228516C39.3533 0.0605469 39.1209 0.0107422 33.1453 0H25.0076Z" fill="url(#paint1_radial_1606_26475)"/>
<path d="M25.0076 0C14.5711 0 11.5183 0.0107422 10.9246 0.0595703C8.78299 0.238281 7.44998 0.575195 5.99783 1.29883C4.87869 1.85449 3.99588 2.49902 3.12576 3.40234C1.53885 5.04883 0.577908 7.07519 0.230252 9.4834C0.0613064 10.6523 0.0115017 10.8916 0.00173611 16.8643C-0.00217014 18.8555 0.00173611 21.4756 0.00173611 24.9902C0.00173611 35.4219 0.0134549 38.4717 0.0632595 39.0644C0.236111 41.1494 0.56326 42.4609 1.25564 43.8955C2.57888 46.6416 5.10525 48.7031 8.08084 49.4727C9.11111 49.7383 10.2498 49.8838 11.7107 49.9531C12.3299 49.9805 18.6404 49.999 24.9549 49.999C31.2693 49.999 37.5828 49.9912 38.1873 49.9609C39.8797 49.8809 40.8621 49.749 41.948 49.4687C44.9431 48.6953 47.4236 46.665 48.7732 43.8799C49.4519 42.4795 49.7957 41.1182 49.9519 39.1426C49.9861 38.7119 49.9998 31.8428 49.9998 24.9834C49.9998 18.123 49.9842 11.2666 49.951 10.8359C49.7937 8.82812 49.449 7.47754 48.7488 6.05078C48.1736 4.88281 47.5359 4.00977 46.6092 3.11816C44.9549 1.53809 42.9324 0.576172 40.5222 0.228516C39.3533 0.0605469 39.1209 0.0107422 33.1453 0H25.0076Z" fill="url(#paint2_radial_1606_26475)"/>
<path d="M25.0076 0C14.5711 0 11.5183 0.0107422 10.9246 0.0595703C8.78299 0.238281 7.44998 0.575195 5.99783 1.29883C4.87869 1.85449 3.99588 2.49902 3.12576 3.40234C1.53885 5.04883 0.577908 7.0752 0.230252 9.4834C0.0613064 10.6523 0.0115017 10.8916 0.00173611 16.8643C-0.00217014 18.8555 0.00173611 21.4756 0.00173611 24.9902C0.00173611 35.4219 0.0134549 38.4717 0.0632595 39.0645C0.236111 41.1494 0.56326 42.4609 1.25564 43.8955C2.57888 46.6416 5.10525 48.7031 8.08084 49.4727C9.11111 49.7383 10.2498 49.8838 11.7107 49.9531C12.3299 49.9805 18.6404 49.999 24.9549 49.999C31.2693 49.999 37.5828 49.9912 38.1873 49.9609C39.8797 49.8809 40.8621 49.749 41.948 49.4687C44.9431 48.6953 47.4236 46.665 48.7732 43.8799C49.4519 42.4795 49.7957 41.1182 49.9519 39.1426C49.9861 38.7119 49.9998 31.8428 49.9998 24.9834C49.9998 18.123 49.9842 11.2666 49.951 10.8359C49.7937 8.82812 49.449 7.47754 48.7488 6.05078C48.1736 4.88281 47.5359 4.00977 46.6092 3.11816C44.9549 1.53809 42.9324 0.576172 40.5222 0.228516C39.3533 0.0605469 39.1209 0.0107422 33.1453 0H25.0076Z" fill="url(#paint3_radial_1606_26475)"/>
<path d="M25.009 6.42126C19.9602 6.42126 19.3264 6.44373 17.344 6.53357C15.3645 6.62439 14.0139 6.93689 12.8323 7.39685C11.6096 7.87146 10.5725 8.50623 9.53931 9.53845C8.50513 10.5707 7.87036 11.6078 7.3938 12.8285C6.93286 14.0101 6.61938 15.3607 6.53052 17.3373C6.44165 19.3187 6.41821 19.9525 6.41821 24.9974C6.41821 30.0424 6.44067 30.6742 6.53052 32.6556C6.62134 34.6332 6.93481 35.9828 7.3938 37.1644C7.86938 38.3861 8.50415 39.4222 9.53833 40.4554C10.5715 41.4887 11.6086 42.1254 12.8303 42.6C14.0129 43.059 15.3645 43.3724 17.343 43.4633C19.3264 43.5531 19.9592 43.5756 25.0081 43.5756C30.0569 43.5756 30.6887 43.5531 32.6721 43.4633C34.6516 43.3724 36.0042 43.0599 37.1868 42.6C38.4094 42.1254 39.4446 41.4896 40.4778 40.4564C41.512 39.4242 42.1467 38.3871 42.6233 37.1664C43.0803 35.9847 43.3938 34.6342 43.4866 32.6576C43.5754 30.6761 43.5989 30.0443 43.5989 24.9994C43.5989 19.9545 43.5754 19.3207 43.4866 17.3392C43.3938 15.3617 43.0803 14.0121 42.6233 12.8304C42.1467 11.6088 41.512 10.5726 40.4778 9.53943C39.4436 8.50623 38.4094 7.87146 37.1858 7.39685C36.0002 6.93787 34.6487 6.62439 32.6702 6.53357C30.6868 6.44373 30.0559 6.42126 25.0051 6.42126H25.009ZM23.342 9.76892C23.8372 9.76794 24.3889 9.76892 25.01 9.76892C29.9739 9.76892 30.5618 9.7865 32.5217 9.87537C34.3342 9.95837 35.3176 10.2611 35.9729 10.515C36.8401 10.8519 37.4592 11.2543 38.1096 11.9047C38.76 12.5551 39.1633 13.1742 39.5012 14.0414C39.7561 14.6957 40.0588 15.6781 40.1418 17.4896C40.2307 19.4476 40.2502 20.0365 40.2502 24.9935C40.2502 29.9515 40.2307 30.5394 40.1418 32.4974C40.0588 34.309 39.7561 35.2914 39.5012 35.9457C39.1643 36.8129 38.761 37.4301 38.1096 38.0795C37.4592 38.7299 36.8411 39.1322 35.9729 39.4691C35.3186 39.725 34.3342 40.0267 32.5217 40.1088C30.5618 40.1976 29.9729 40.2172 25.01 40.2172C20.0461 40.2172 19.4573 40.1976 17.4983 40.1088C15.6858 40.0248 14.7024 39.723 14.0461 39.4681C13.179 39.1312 12.5588 38.7289 11.9084 38.0785C11.2581 37.4281 10.8547 36.8109 10.5168 35.9437C10.262 35.2894 9.95923 34.307 9.87622 32.4955C9.78735 30.5375 9.76978 29.9486 9.76978 24.9886C9.76978 20.0277 9.78735 19.4428 9.87622 17.4847C9.95923 15.6732 10.262 14.6908 10.5168 14.0355C10.8538 13.1683 11.2571 12.5492 11.9084 11.8988C12.5588 11.2484 13.179 10.8461 14.0461 10.5082C14.7014 10.2523 15.6858 9.95056 17.4983 9.86755C19.2131 9.79041 19.8782 9.76697 23.343 9.76306L23.342 9.76892ZM34.9329 12.8539C33.7014 12.8539 32.7024 13.851 32.7024 15.0824C32.7024 16.3129 33.7014 17.3119 34.9329 17.3119C36.1643 17.3119 37.1633 16.3138 37.1633 15.0824C37.1633 13.851 36.1643 12.8529 34.9329 12.8539ZM25.009 15.4584C19.7366 15.4584 15.4622 19.7299 15.4622 24.9984C15.4622 30.267 19.7366 34.5365 25.009 34.5365C30.2815 34.5365 34.554 30.267 34.554 24.9984C34.554 19.7299 30.2815 15.4584 25.009 15.4584ZM25.009 18.806C28.4309 18.806 31.2063 21.5785 31.2063 24.9984C31.2063 28.4183 28.4319 31.1908 25.009 31.1908C21.5862 31.1908 18.8118 28.4183 18.8118 24.9984C18.8127 21.5775 21.5872 18.806 25.009 18.806Z" fill="white"/>
<defs>
<radialGradient id="paint0_radial_1606_26475" cx="0" cy="0" r="1" gradientUnits="userSpaceOnUse" gradientTransform="translate(48.3856 23.4359) rotate(164.251) scale(31.9473 23.0165)">
<stop stop-color="#FF005F"/>
<stop offset="1" stop-color="#FC01D8"/>
</radialGradient>
<radialGradient id="paint1_radial_1606_26475" cx="0" cy="0" r="1" gradientUnits="userSpaceOnUse" gradientTransform="translate(13.2807 53.8511) rotate(-90) scale(39.911 42.3448)">
<stop stop-color="#FFCC00"/>
<stop offset="0.1242" stop-color="#FFCC00"/>
<stop offset="0.5672" stop-color="#FE4A05"/>
<stop offset="0.6942" stop-color="#FF0F3F"/>
<stop offset="1" stop-color="#FE0657" stop-opacity="0"/>
</radialGradient>
<radialGradient id="paint2_radial_1606_26475" cx="0" cy="0" r="1" gradientUnits="userSpaceOnUse" gradientTransform="translate(26.2628 49.2947) rotate(-59.8697) scale(16.5035 21.4858)">
<stop stop-color="#FFCC00"/>
<stop offset="1" stop-color="#FFCC00" stop-opacity="0"/>
</radialGradient>
<radialGradient id="paint3_radial_1606_26475" cx="0" cy="0" r="1" gradientUnits="userSpaceOnUse" gradientTransform="translate(6.78383 2.03762) rotate(164.274) scale(31.5928 10.7637)">
<stop stop-color="#780CFF"/>
<stop offset="1" stop-color="#820BFF" stop-opacity="0"/>
</radialGradient>
</defs>
</svg>
