<svg width="50" height="50" viewBox="0 0 50 50" fill="none" xmlns="http://www.w3.org/2000/svg">
<rect width="50" height="50" rx="12" fill="white"/>
<path d="M42.0037 16.4025C41.5903 14.8616 40.3875 13.6589 38.8466 13.2454C36.0591 12.5 24.887 12.5 24.887 12.5C24.887 12.5 13.7213 12.5 10.9338 13.2454C9.39281 13.6589 8.19011 14.8616 7.77668 16.4025C7.03125 19.1901 7.03125 25 7.03125 25C7.03125 25 7.03125 30.8131 7.77668 33.5975C8.19011 35.1384 9.39281 36.3411 10.9338 36.7546C13.7213 37.5 24.8902 37.5 24.8902 37.5C24.8902 37.5 36.0591 37.5 38.8466 36.7546C40.3875 36.3411 41.5903 35.1384 42.0037 33.5975C42.7491 30.8099 42.7491 25 42.7491 25C42.7491 25 42.7491 19.1901 42.0037 16.4025Z" fill="#FF0000"/>
<path d="M21.3164 30.359L30.5967 25L21.3164 19.6411V30.359Z" fill="white"/>
</svg>
