<svg width="111" height="18" viewBox="0 0 111 18" fill="none" xmlns="http://www.w3.org/2000/svg">
<g clip-path="url(#clip0_1225_5809)">
<path d="M22.8498 1.09282H2.9732C1.84729 1.09282 0.93457 2.00554 0.93457 3.13145V14.8535C0.93457 15.9795 1.84729 16.8922 2.9732 16.8922H22.8498C23.9757 16.8922 24.8884 15.9795 24.8884 14.8535V3.13145C24.8884 2.00554 23.9757 1.09282 22.8498 1.09282Z" fill="white" stroke="black" stroke-opacity="0.2" stroke-width="0.509657"/>
<path d="M3.52148 6.86665C2.98823 6.57418 2.37965 6.33896 1.69922 6.17572L1.72776 6.0486H4.5176C4.89575 6.06185 5.20259 6.17563 5.30244 6.57745L5.90875 9.4681L6.09448 10.3387L7.79264 6.0486H9.6262L6.90065 12.3333H5.06699L3.52148 6.86665ZM10.9749 12.34H9.24094L10.3255 6.0486H12.0594L10.9749 12.34ZM17.2609 6.2024L17.025 7.56096L16.8682 7.49415C16.5544 7.36694 16.1403 7.23982 15.5765 7.25325C14.8919 7.25325 14.5849 7.52751 14.5778 7.79527C14.5778 8.08981 14.9492 8.28391 15.5557 8.57178C16.5547 9.02021 17.0181 9.56898 17.0112 10.2852C16.9972 11.5904 15.8126 12.4338 13.9932 12.4338C13.2153 12.427 12.466 12.2727 12.0593 12.0989L12.302 10.6866L12.5303 10.7872C13.094 11.0217 13.465 11.1218 14.1572 11.1218C14.6565 11.1218 15.1918 10.9275 15.1986 10.5061C15.1986 10.2316 14.9705 10.0307 14.2997 9.72279C13.6433 9.42149 12.7657 8.9196 12.78 8.01597C12.7874 6.79121 13.9932 5.93456 15.7056 5.93456C16.3764 5.93456 16.9188 6.07511 17.2609 6.2024ZM19.5655 10.1112H21.0068C20.9355 9.79662 20.6071 8.29067 20.6071 8.29067L20.4859 7.74857C20.4003 7.98279 20.2506 8.36433 20.2578 8.35089C20.2578 8.35089 19.7083 9.74974 19.5655 10.1112ZM21.7059 6.0486L23.1048 12.3399H21.4993C21.4993 12.3399 21.3422 11.617 21.2924 11.3962H19.0661C19.0017 11.5634 18.7021 12.3399 18.7021 12.3399H16.8827L19.4583 6.5706C19.6368 6.16229 19.951 6.0486 20.3646 6.0486H21.7059Z" fill="#171E6C"/>
</g>
<g clip-path="url(#clip1_1225_5809)">
<path d="M51.6466 0.837975H31.2603C30.1344 0.837975 29.2217 1.7507 29.2217 2.8766V15.1084C29.2217 16.2343 30.1344 17.147 31.2603 17.147H51.6466C52.7725 17.147 53.6852 16.2343 53.6852 15.1084V2.8766C53.6852 1.7507 52.7725 0.837975 51.6466 0.837975Z" fill="#252525"/>
<path d="M38.3954 14.089C41.2102 14.089 43.492 11.8072 43.492 8.99248C43.492 6.17772 41.2102 3.89591 38.3954 3.89591C35.5806 3.89591 33.2988 6.17772 33.2988 8.99248C33.2988 11.8072 35.5806 14.089 38.3954 14.089Z" fill="#EB001B"/>
<path d="M44.5116 14.089C47.3264 14.089 49.6082 11.8072 49.6082 8.99248C49.6082 6.17772 47.3264 3.89591 44.5116 3.89591C41.6968 3.89591 39.415 6.17772 39.415 8.99248C39.415 11.8072 41.6968 14.089 44.5116 14.089Z" fill="#F79E1B"/>
<path fill-rule="evenodd" clip-rule="evenodd" d="M41.4537 4.91486C42.6916 5.84468 43.4923 7.32507 43.4923 8.99248C43.4923 10.6599 42.6916 12.1403 41.4537 13.0701C40.2158 12.1403 39.415 10.6599 39.415 8.99248C39.415 7.32507 40.2158 5.84468 41.4537 4.91486V4.91486Z" fill="#FF5F00"/>
</g>
<g clip-path="url(#clip2_1225_5809)">
<path d="M80.1886 0.837975H59.8023C58.6764 0.837975 57.7637 1.7507 57.7637 2.8766V15.1084C57.7637 16.2343 58.6764 17.147 59.8023 17.147H80.1886C81.3145 17.147 82.2272 16.2343 82.2272 15.1084V2.8766C82.2272 1.7507 81.3145 0.837975 80.1886 0.837975Z" fill="#016FD0"/>
<path fill-rule="evenodd" clip-rule="evenodd" d="M71.793 14.4905V8.679L82.1365 8.68828V10.2936L80.941 11.5712L82.1365 12.8605V14.4999H80.2277L79.2133 13.3805L78.2061 14.5041L71.793 14.4905Z" fill="#FFFFFE"/>
<path fill-rule="evenodd" clip-rule="evenodd" d="M72.4844 13.8534V9.31857H76.3295V10.3633H73.7294V11.0724H76.2675V12.0997H73.7294V12.7962H76.3295V13.8534H72.4844Z" fill="#016FD0"/>
<path fill-rule="evenodd" clip-rule="evenodd" d="M76.3106 13.8534L78.4383 11.5834L76.3105 9.31867H77.9574L79.2575 10.7559L80.5613 9.31867H82.1374V9.35435L80.055 11.5834L82.1374 13.7891V13.8534H80.5455L79.2223 12.4017L77.9127 13.8534H76.3106Z" fill="#016FD0"/>
<path fill-rule="evenodd" clip-rule="evenodd" d="M72.2756 3.52077H74.7689L75.6447 5.5093V3.52077H78.7228L79.2536 5.01056L79.7862 3.52077H82.1367V9.33227H69.7148L72.2756 3.52077Z" fill="#FFFFFE"/>
<path fill-rule="evenodd" clip-rule="evenodd" d="M72.7485 4.15212L70.7363 8.68314H72.1164L72.496 7.77579H74.5529L74.9322 8.68314H76.3466L74.3429 4.15212H72.7485ZM72.9214 6.75895L73.5248 5.31655L74.1278 6.75895H72.9214Z" fill="#016FD0"/>
<path fill-rule="evenodd" clip-rule="evenodd" d="M76.3271 8.68235V4.15141L78.267 4.15808L79.2652 6.94359L80.2699 4.15141H82.1369V8.68235L80.9355 8.69298V5.58066L79.8014 8.68235H78.7048L77.5473 5.57003V8.68235H76.3271Z" fill="#016FD0"/>
</g>
<g clip-path="url(#clip3_1225_5809)">
<path d="M108.726 16.8921L108.728 16.8921C109.702 16.9004 110.5 16.1045 110.512 15.1126L110.512 2.88303C110.509 2.40332 110.318 1.94512 109.982 1.60939C109.648 1.27452 109.196 1.08888 108.726 1.09288L88.343 1.09287C87.8746 1.08888 87.4236 1.27452 87.0889 1.60939C86.7534 1.94512 86.5625 2.40332 86.5586 2.88095L86.5586 15.1019C86.5625 15.5816 86.7534 16.0398 87.0889 16.3756C87.4236 16.7104 87.8746 16.8961 88.3452 16.8921H108.726ZM108.725 17.4017C108.724 17.4017 108.724 17.4017 108.724 17.4017L108.726 17.4017H108.725Z" fill="white" stroke="black" stroke-opacity="0.2" stroke-width="0.509657"/>
<path d="M99.1592 17.1469H108.725C109.262 17.1514 109.779 16.9424 110.162 16.5659C110.545 16.1894 110.762 15.6762 110.767 15.1392V12.735C107.154 14.8086 103.237 16.2977 99.1592 17.1469Z" fill="#F27712"/>
<path d="M109.923 10.314H109.054L108.075 9.02335H107.983V10.314H107.274V7.10844H108.32C109.138 7.10844 109.611 7.44587 109.611 8.05324C109.611 8.55095 109.315 8.8715 108.784 8.97273L109.923 10.314ZM108.877 8.07855C108.877 7.76643 108.641 7.60615 108.202 7.60615H107.983V8.57625H108.185C108.641 8.57625 108.877 8.40754 108.877 8.07855ZM104.794 7.10844H106.802V7.64833H105.503V8.36536H106.751V8.91368H105.503V9.78256H106.802V10.3224H104.794V7.10844ZM102.516 10.3984L100.981 7.10001H101.757L102.727 9.25955L103.706 7.10001H104.465L102.913 10.3984H102.533H102.516ZM96.0968 10.3899C95.017 10.3899 94.1734 9.65602 94.1734 8.70279C94.1734 7.77486 95.0339 7.02409 96.1136 7.02409C96.4173 7.02409 96.6704 7.08314 96.9825 7.21811V7.96045C96.7461 7.72823 96.4281 7.59799 96.0968 7.59771C95.4219 7.59771 94.9073 8.08698 94.9073 8.70279C94.9073 9.35234 95.4135 9.8163 96.1305 9.8163C96.4511 9.8163 96.6957 9.71507 96.9825 9.462V10.2043C96.662 10.3393 96.392 10.3899 96.0968 10.3899ZM93.9541 9.33547C93.9541 9.95971 93.4395 10.3899 92.6972 10.3899C92.1573 10.3899 91.7692 10.2043 91.4403 9.78256L91.9042 9.38608C92.0645 9.67289 92.3344 9.8163 92.6719 9.8163C92.9924 9.8163 93.2202 9.62228 93.2202 9.36921C93.2202 9.2258 93.1527 9.11614 93.0093 9.03178C92.8521 8.95548 92.6883 8.89337 92.52 8.8462C91.8536 8.6353 91.6258 8.40754 91.6258 7.96045C91.6258 7.43744 92.1151 7.04096 92.7562 7.04096C93.1611 7.04096 93.5239 7.16749 93.8276 7.40369L93.4564 7.82548C93.3093 7.6642 93.101 7.57234 92.8828 7.57241C92.5791 7.57241 92.3597 7.72425 92.3597 7.92671C92.3597 8.09542 92.4863 8.18821 92.9081 8.33162C93.7179 8.58469 93.9541 8.82089 93.9541 9.3439V9.33547ZM90.4701 7.10844H91.1787V10.3224H90.4701V7.10844ZM88.1925 10.3224H87.1465V7.10844H88.1925C89.3398 7.10844 90.1327 7.76643 90.1327 8.71123C90.1327 9.19206 89.8965 9.64759 89.4832 9.95127C89.1289 10.2043 88.7324 10.3224 88.1841 10.3224H88.1925ZM89.0192 7.90983C88.783 7.72425 88.5131 7.65676 88.0491 7.65676H87.8551V9.78256H88.0491C88.5046 9.78256 88.7914 9.6982 89.0192 9.52949C89.2638 9.32703 89.4073 9.02335 89.4073 8.71123C89.4073 8.3991 89.2638 8.10386 89.0192 7.90983Z" fill="black"/>
<path d="M98.9576 7.02409C98.0297 7.02409 97.2705 7.76643 97.2705 8.68592C97.2705 9.66446 97.996 10.3984 98.9576 10.3984C99.9024 10.3984 100.645 9.65602 100.645 8.71123C100.645 7.76643 99.9109 7.02409 98.9576 7.02409Z" fill="#F27712"/>
</g>
<defs>
<clipPath id="clip0_1225_5809">
<rect width="24.4635" height="16.309" fill="white" transform="translate(0.681641 0.837982)"/>
</clipPath>
<clipPath id="clip1_1225_5809">
<rect width="24.4635" height="16.309" fill="white" transform="translate(29.2227 0.837982)"/>
</clipPath>
<clipPath id="clip2_1225_5809">
<rect width="24.4635" height="16.309" fill="white" transform="translate(57.7627 0.837982)"/>
</clipPath>
<clipPath id="clip3_1225_5809">
<rect width="24.4635" height="16.309" fill="white" transform="translate(86.3037 0.837982)"/>
</clipPath>
</defs>
</svg>
