<svg width="90" height="90" viewBox="0 0 90 90" fill="none" xmlns="http://www.w3.org/2000/svg">
<g id="Group 10">
<mask id="mask0_1066_27071" style="mask-type:alpha" maskUnits="userSpaceOnUse" x="0" y="0" width="90" height="90">
<circle id="Ellipse 1" cx="45" cy="45" r="45" fill="#E4E9FF"/>
</mask>
<g mask="url(#mask0_1066_27071)">
<circle id="Ellipse 2" cx="45" cy="45" r="45" fill="#E4E9FF"/>
<g id="Group 11">
<mask id="mask1_1066_27071" style="mask-type:alpha" maskUnits="userSpaceOnUse" x="18" y="29" width="54" height="71">
<rect id="Rectangle 5" x="18" y="29" width="54" height="71" rx="14" fill="#4791FF"/>
</mask>
<g mask="url(#mask1_1066_27071)">
<rect id="Rectangle 6" x="18" y="29" width="54" height="71" rx="14" fill="#2A2368"/>
<g id="Group 16">
<rect id="Rectangle 8" x="26" y="52" width="38" height="13" rx="6" fill="#554E90"/>
<path id="Vector 2" d="M33.5 56H51" stroke="white" stroke-width="2" stroke-linecap="round"/>
<path id="Vector 3" opacity="0.5" d="M33.5 61H43" stroke="white" stroke-width="2" stroke-linecap="round"/>
</g>
<g id="Group 17">
<rect id="Rectangle 8_2" x="26" y="69" width="38" height="13" rx="6" fill="#554E91"/>
<path id="Vector 2_2" d="M33.5 73H51" stroke="white" stroke-width="2" stroke-linecap="round"/>
<path id="Vector 3_2" opacity="0.5" d="M33.5 78H43" stroke="white" stroke-width="2" stroke-linecap="round"/>
</g>
<circle id="Ellipse 5" opacity="0.1" cx="45" cy="33" r="15" fill="#050D35"/>
</g>
</g>
<circle id="Ellipse 3" cx="45" cy="30" r="15" fill="#4791FF"/>
<path id="Star 1" d="M43.5898 24.5762C44.0337 23.2101 45.9663 23.2101 46.4102 24.5762C46.8765 26.0112 48.2137 26.9828 49.7225 26.9828C51.1589 26.9828 51.7562 28.8209 50.5941 29.6652C49.3734 30.552 48.8626 32.124 49.3289 33.559C49.7728 34.9251 48.2092 36.0611 47.0471 35.2168C45.8265 34.3299 44.1735 34.3299 42.9529 35.2168C41.7908 36.0611 40.2272 34.9251 40.6711 33.559C41.1374 32.124 40.6266 30.552 39.4059 29.6652C38.2438 28.8209 38.8411 26.9828 40.2775 26.9828C41.7863 26.9828 43.1235 26.0112 43.5898 24.5762Z" stroke="white" stroke-width="2"/>
</g>
</g>
</svg>
