<svg width="32" height="32" viewBox="0 0 32 32" fill="none" xmlns="http://www.w3.org/2000/svg">
<g id="CaretDown">
<path id="Vector" d="M5.29194 19.2919L15.2919 9.29194C15.3848 9.19897 15.4951 9.12521 15.6165 9.07488C15.7379 9.02456 15.868 8.99866 15.9994 8.99866C16.1309 8.99866 16.261 9.02456 16.3824 9.07488C16.5038 9.12521 16.6141 9.19897 16.7069 9.29194L26.7069 19.2919C26.8946 19.4796 27 19.7341 27 19.9994C27 20.2648 26.8946 20.5193 26.7069 20.7069C26.5193 20.8946 26.2648 21 25.9994 21C25.7341 21 25.4796 20.8946 25.2919 20.7069L15.9994 11.4132L6.70694 20.7069C6.61403 20.7999 6.50373 20.8736 6.38234 20.9238C6.26095 20.9741 6.13084 21 5.99944 21C5.86805 21 5.73794 20.9741 5.61655 20.9238C5.49515 20.8736 5.38485 20.7999 5.29194 20.7069C5.19903 20.614 5.12533 20.5037 5.07505 20.3823C5.02477 20.2609 4.99889 20.1308 4.99889 19.9994C4.99889 19.868 5.02477 19.7379 5.07505 19.6165C5.12533 19.4952 5.19903 19.3849 5.29194 19.2919Z" fill="white"/>
</g>
</svg>
