<svg width="18" height="18" viewBox="0 0 18 18" fill="none" xmlns="http://www.w3.org/2000/svg">
<g clip-path="url(#clip0_891_36821)">
<path d="M9.00156 0.507812C4.30469 0.507812 0.507812 4.30469 0.507812 9.00156C0.507812 13.6984 4.30469 17.5234 9.00156 17.5234C13.6984 17.5234 17.5234 13.6984 17.5234 9.00156C17.5234 4.30469 13.6984 0.507812 9.00156 0.507812ZM9.00156 16.2578C5.00781 16.2578 1.77344 12.9953 1.77344 9.00156C1.77344 5.00781 5.00781 1.77344 9.00156 1.77344C12.9953 1.77344 16.2578 5.03594 16.2578 9.02969C16.2578 12.9953 12.9953 16.2578 9.00156 16.2578Z" fill="#22AD5C"/>
<path d="M11.4216 6.38414L8.07476 9.64664L6.55601 8.15601C6.30289 7.90289 5.90914 7.93101 5.65601 8.15601C5.40289 8.40914 5.43101 8.80289 5.65601 9.05602L7.45601 10.7998C7.62476 10.9685 7.84976 11.0529 8.07476 11.0529C8.29976 11.0529 8.52476 10.9685 8.69351 10.7998L12.3216 7.31226C12.5748 7.05914 12.5748 6.66539 12.3216 6.41226C12.0685 6.15914 11.6748 6.15914 11.4216 6.38414Z" fill="#22AD5C"/>
</g>
<defs>
<clipPath id="clip0_891_36821">
<rect width="18" height="18" fill="white"/>
</clipPath>
</defs>
</svg>
