<svg width="20" height="21" viewBox="0 0 20 21" fill="none" xmlns="http://www.w3.org/2000/svg">
<g clip-path="url(#clip0_1090_3446)">
<path d="M13.1875 9.50781H10.6875V7.03906C10.6875 6.66406 10.375 6.35156 9.96875 6.35156C9.59375 6.35156 9.28125 6.66406 9.28125 7.07031V9.53906H6.8125C6.4375 9.53906 6.125 9.85156 6.125 10.2578C6.125 10.6328 6.4375 10.9453 6.84375 10.9453H9.3125V13.4141C9.3125 13.7891 9.625 14.1016 10.0312 14.1016C10.4062 14.1016 10.7187 13.7891 10.7187 13.3828V10.9141H13.1875C13.5625 10.9141 13.875 10.6016 13.875 10.1953C13.875 9.82031 13.5625 9.50781 13.1875 9.50781Z" fill="#3758F9"/>
<path d="M10 0.789062C4.78125 0.789062 0.5625 5.00781 0.5625 10.2266C0.5625 15.4453 4.8125 19.6953 10.0312 19.6953C15.25 19.6953 19.5 15.4453 19.5 10.2266C19.4688 5.00781 15.2188 0.789062 10 0.789062ZM10 18.2891C5.5625 18.2891 1.96875 14.6641 1.96875 10.2266C1.96875 5.78906 5.5625 2.19531 10 2.19531C14.4375 2.19531 18.0625 5.78906 18.0625 10.2266C18.0625 14.6641 14.4375 18.2891 10 18.2891Z" fill="#3758F9"/>
</g>
<defs>
<clipPath id="clip0_1090_3446">
<rect width="20" height="20" fill="white" transform="translate(0 0.226562)"/>
</clipPath>
</defs>
</svg>
