<svg width="32" height="32" viewBox="0 0 32 32" fill="none" xmlns="http://www.w3.org/2000/svg">
<g id="credit-card">
<path id="Vector" d="M2.66699 16C2.66699 11.2834 2.66699 8.92503 4.07073 7.35053C4.29525 7.09871 4.5427 6.8658 4.81027 6.65449C6.48317 5.33333 8.98889 5.33333 14.0003 5.33333H18.0003C23.0118 5.33333 25.5175 5.33333 27.1903 6.65449C27.4579 6.8658 27.7054 7.09871 27.9299 7.35053C29.3337 8.92503 29.3337 11.2834 29.3337 16C29.3337 20.7167 29.3337 23.0749 27.9299 24.6495C27.7054 24.9013 27.4579 25.1341 27.1903 25.3455C25.5175 26.6667 23.0118 26.6667 18.0003 26.6667H14.0003C8.98889 26.6667 6.48317 26.6667 4.81027 25.3455C4.5427 25.1341 4.29525 24.9013 4.07073 24.6495C2.66699 23.0749 2.66699 20.7167 2.66699 16Z" stroke="black" stroke-width="1.5" stroke-linecap="round" stroke-linejoin="round"/>
<path id="Vector_2" d="M13.333 21.3333H15.333" stroke="black" stroke-width="1.5" stroke-miterlimit="10" stroke-linecap="round" stroke-linejoin="round"/>
<path id="Vector_3" d="M19.333 21.3333H23.9997" stroke="black" stroke-width="1.5" stroke-miterlimit="10" stroke-linecap="round" stroke-linejoin="round"/>
<path id="Vector_4" d="M2.66699 12H29.3337" stroke="black" stroke-width="1.5" stroke-linejoin="round"/>
</g>
</svg>
