<svg width="21" height="20" viewBox="0 0 21 20" fill="none" xmlns="http://www.w3.org/2000/svg">
<path d="M18.3469 6.98009L10.8469 1.98009C10.7442 1.91157 10.6235 1.875 10.5 1.875C10.3765 1.875 10.2558 1.91157 10.1531 1.98009L2.65313 6.98009C2.56751 7.03722 2.49732 7.1146 2.4488 7.20537C2.40029 7.29614 2.37493 7.39748 2.375 7.50041V15.6254C2.375 15.9569 2.5067 16.2749 2.74112 16.5093C2.97554 16.7437 3.29348 16.8754 3.625 16.8754H17.375C17.7065 16.8754 18.0245 16.7437 18.2589 16.5093C18.4933 16.2749 18.625 15.9569 18.625 15.6254V7.50041C18.6251 7.39748 18.5997 7.29614 18.5512 7.20537C18.5027 7.1146 18.4325 7.03722 18.3469 6.98009ZM10.5 3.25119L16.8992 7.51759L11.6648 11.2504H9.33672L4.10234 7.51759L10.5 3.25119ZM3.625 15.6254V8.71369L8.77344 12.3856C8.87944 12.4613 9.00645 12.502 9.13672 12.502H11.8633C11.9935 12.502 12.1206 12.4613 12.2266 12.3856L17.375 8.71369V15.6254H3.625Z" fill="#47515F"/>
</svg>
