<svg width="88" height="88" viewBox="0 0 88 88" fill="none" xmlns="http://www.w3.org/2000/svg">
<g id="Frame 1" filter="url(#filter0_dd_1079_2616)">
<g clip-path="url(#clip0_1079_2616)">
<rect x="12" y="2" width="64" height="64" rx="12" fill="#0866FF"/>
<g id="Logo">
<path id="Initiator" d="M76 34C76 16.327 61.673 2 44 2C26.327 2 12 16.327 12 34C12 49.0067 22.3322 61.5994 36.2701 65.0579V43.7792H29.6717V34H36.2701V29.7862C36.2701 18.8947 41.1994 13.8464 51.8925 13.8464C53.92 13.8464 57.4182 14.2445 58.8493 14.6413V23.5053C58.0941 23.4259 56.7821 23.3862 55.1526 23.3862C49.9059 23.3862 47.8784 25.3741 47.8784 30.5414V34H58.3309L56.535 43.7792H47.8784V65.7658C63.721 63.8522 76 50.361 76 34Z" fill="#0866FF"/>
<path id="F" d="M56.5352 43.7766L58.3311 33.9973H47.8786V30.5388C47.8786 25.3714 49.9061 23.3836 55.1528 23.3836C56.7823 23.3836 58.0943 23.4233 58.8495 23.5026V14.6386C57.4184 14.2405 53.9202 13.8438 51.8927 13.8438C41.1996 13.8438 36.2703 18.8921 36.2703 29.7836V33.9973H29.6719V43.7766H36.2703V65.0553C38.7458 65.6697 41.3352 65.9973 44.0002 65.9973C45.3122 65.9973 46.6063 65.9167 47.8773 65.7631V43.7766H56.5352Z" fill="white"/>
</g>
</g>
</g>
<defs>
<filter id="filter0_dd_1079_2616" x="0" y="0" width="88" height="88" filterUnits="userSpaceOnUse" color-interpolation-filters="sRGB">
<feFlood flood-opacity="0" result="BackgroundImageFix"/>
<feColorMatrix in="SourceAlpha" type="matrix" values="0 0 0 0 0 0 0 0 0 0 0 0 0 0 0 0 0 0 127 0" result="hardAlpha"/>
<feMorphology radius="2" operator="erode" in="SourceAlpha" result="effect1_dropShadow_1079_2616"/>
<feOffset dy="4"/>
<feGaussianBlur stdDeviation="3"/>
<feColorMatrix type="matrix" values="0 0 0 0 0 0 0 0 0 0 0 0 0 0 0 0 0 0 0.05 0"/>
<feBlend mode="normal" in2="BackgroundImageFix" result="effect1_dropShadow_1079_2616"/>
<feColorMatrix in="SourceAlpha" type="matrix" values="0 0 0 0 0 0 0 0 0 0 0 0 0 0 0 0 0 0 127 0" result="hardAlpha"/>
<feMorphology radius="3" operator="erode" in="SourceAlpha" result="effect2_dropShadow_1079_2616"/>
<feOffset dy="10"/>
<feGaussianBlur stdDeviation="7.5"/>
<feColorMatrix type="matrix" values="0 0 0 0 0 0 0 0 0 0 0 0 0 0 0 0 0 0 0.1 0"/>
<feBlend mode="normal" in2="effect1_dropShadow_1079_2616" result="effect2_dropShadow_1079_2616"/>
<feBlend mode="normal" in="SourceGraphic" in2="effect2_dropShadow_1079_2616" result="shape"/>
</filter>
<clipPath id="clip0_1079_2616">
<rect x="12" y="2" width="64" height="64" rx="12" fill="white"/>
</clipPath>
</defs>
</svg>
