<svg width="64" height="64" viewBox="0 0 64 64" fill="none" xmlns="http://www.w3.org/2000/svg">
<g clip-path="url(#clip0_1079_2620)">
<path d="M32.0097 0C18.651 0 14.7435 0.01375 13.9835 0.07625C11.2422 0.305 9.53597 0.73625 7.67722 1.6625C6.24472 2.37375 5.11472 3.19875 4.00097 4.355C1.96972 6.4625 0.739722 9.05625 0.294722 12.1387C0.0784722 13.635 0.0147222 13.9412 0.00222222 21.5862C-0.00277778 24.135 0.00222222 27.4887 0.00222222 31.9875C0.00222222 45.34 0.0172222 49.2437 0.0809722 50.0025C0.302222 52.6712 0.720972 54.35 1.60722 56.1862C3.30097 59.7012 6.53472 62.34 10.3435 63.325C11.6622 63.665 13.1197 63.8512 14.9897 63.94C15.7822 63.975 23.8597 63.9987 31.9422 63.9987C40.0247 63.9987 48.106 63.9887 48.8797 63.95C51.046 63.8475 52.3035 63.6787 53.6935 63.32C57.5272 62.33 60.7022 59.7312 62.4297 56.1662C63.2985 54.3737 63.7385 52.6312 63.9385 50.1025C63.9822 49.5512 63.9997 40.7587 63.9997 31.9787C63.9997 23.1975 63.9797 14.4212 63.9372 13.87C63.736 11.3 63.2947 9.57125 62.3985 7.745C61.6622 6.25 60.846 5.1325 59.6597 3.99125C57.5422 1.96875 54.9535 0.7375 51.8685 0.2925C50.3722 0.0775 50.0747 0.01375 42.426 0H32.0097Z" fill="url(#paint0_radial_1079_2620)"/>
<path d="M32.0097 0C18.651 0 14.7435 0.01375 13.9835 0.07625C11.2422 0.305 9.53597 0.73625 7.67722 1.6625C6.24472 2.37375 5.11472 3.19875 4.00097 4.355C1.96972 6.4625 0.739722 9.05625 0.294722 12.1387C0.0784722 13.635 0.0147222 13.9412 0.00222222 21.5862C-0.00277778 24.135 0.00222222 27.4887 0.00222222 31.9875C0.00222222 45.34 0.0172222 49.2437 0.0809722 50.0025C0.302222 52.6712 0.720972 54.35 1.60722 56.1862C3.30097 59.7012 6.53472 62.34 10.3435 63.325C11.6622 63.665 13.1197 63.8512 14.9897 63.94C15.7822 63.975 23.8597 63.9987 31.9422 63.9987C40.0247 63.9987 48.106 63.9887 48.8797 63.95C51.046 63.8475 52.3035 63.6787 53.6935 63.32C57.5272 62.33 60.7022 59.7312 62.4297 56.1662C63.2985 54.3737 63.7385 52.6312 63.9385 50.1025C63.9822 49.5512 63.9997 40.7587 63.9997 31.9787C63.9997 23.1975 63.9797 14.4212 63.9372 13.87C63.736 11.3 63.2947 9.57125 62.3985 7.745C61.6622 6.25 60.846 5.1325 59.6597 3.99125C57.5422 1.96875 54.9535 0.7375 51.8685 0.2925C50.3722 0.0775 50.0747 0.01375 42.426 0H32.0097Z" fill="url(#paint1_radial_1079_2620)"/>
<path d="M32.0097 0C18.651 0 14.7435 0.01375 13.9835 0.07625C11.2422 0.305 9.53597 0.73625 7.67722 1.6625C6.24472 2.37375 5.11472 3.19875 4.00097 4.355C1.96972 6.4625 0.739722 9.05625 0.294722 12.1387C0.0784722 13.635 0.0147222 13.9412 0.00222222 21.5862C-0.00277778 24.135 0.00222222 27.4887 0.00222222 31.9875C0.00222222 45.34 0.0172222 49.2437 0.0809722 50.0025C0.302222 52.6712 0.720972 54.35 1.60722 56.1862C3.30097 59.7012 6.53472 62.34 10.3435 63.325C11.6622 63.665 13.1197 63.8512 14.9897 63.94C15.7822 63.975 23.8597 63.9987 31.9422 63.9987C40.0247 63.9987 48.106 63.9887 48.8797 63.95C51.046 63.8475 52.3035 63.6787 53.6935 63.32C57.5272 62.33 60.7022 59.7312 62.4297 56.1662C63.2985 54.3737 63.7385 52.6312 63.9385 50.1025C63.9822 49.5512 63.9997 40.7587 63.9997 31.9787C63.9997 23.1975 63.9797 14.4212 63.9372 13.87C63.736 11.3 63.2947 9.57125 62.3985 7.745C61.6622 6.25 60.846 5.1325 59.6597 3.99125C57.5422 1.96875 54.9535 0.7375 51.8685 0.2925C50.3722 0.0775 50.0747 0.01375 42.426 0H32.0097Z" fill="url(#paint2_radial_1079_2620)"/>
<path d="M32.0097 0C18.651 0 14.7435 0.01375 13.9835 0.07625C11.2422 0.305 9.53597 0.73625 7.67722 1.6625C6.24472 2.37375 5.11472 3.19875 4.00097 4.355C1.96972 6.4625 0.739722 9.05625 0.294722 12.1388C0.0784722 13.635 0.0147222 13.9413 0.00222222 21.5863C-0.00277778 24.135 0.00222222 27.4888 0.00222222 31.9875C0.00222222 45.34 0.0172222 49.2437 0.0809722 50.0025C0.302222 52.6712 0.720972 54.35 1.60722 56.1862C3.30097 59.7012 6.53472 62.34 10.3435 63.325C11.6622 63.665 13.1197 63.8512 14.9897 63.94C15.7822 63.975 23.8597 63.9987 31.9422 63.9987C40.0247 63.9987 48.106 63.9888 48.8797 63.95C51.046 63.8475 52.3035 63.6787 53.6935 63.32C57.5272 62.33 60.7022 59.7312 62.4297 56.1662C63.2985 54.3737 63.7385 52.6313 63.9385 50.1025C63.9822 49.5513 63.9997 40.7587 63.9997 31.9787C63.9997 23.1975 63.9797 14.4212 63.9372 13.87C63.736 11.3 63.2947 9.57125 62.3985 7.745C61.6622 6.25 60.846 5.1325 59.6597 3.99125C57.5422 1.96875 54.9535 0.7375 51.8685 0.2925C50.3722 0.0775 50.0747 0.01375 42.426 0H32.0097Z" fill="url(#paint3_radial_1079_2620)"/>
<path d="M32.015 8.21875C25.5525 8.21875 24.7412 8.2475 22.2037 8.3625C19.67 8.47875 17.9412 8.87875 16.4288 9.4675C14.8637 10.075 13.5363 10.8875 12.2137 12.2088C10.89 13.53 10.0775 14.8575 9.4675 16.42C8.8775 17.9325 8.47625 19.6613 8.3625 22.1913C8.24875 24.7275 8.21875 25.5387 8.21875 31.9963C8.21875 38.4538 8.2475 39.2625 8.3625 41.7988C8.47875 44.33 8.88 46.0575 9.4675 47.57C10.0762 49.1338 10.8887 50.46 12.2125 51.7825C13.535 53.105 14.8625 53.92 16.4262 54.5275C17.94 55.115 19.67 55.5163 22.2025 55.6325C24.7413 55.7475 25.5512 55.7763 32.0137 55.7763C38.4762 55.7763 39.285 55.7475 41.8237 55.6325C44.3575 55.5163 46.0887 55.1162 47.6025 54.5275C49.1675 53.92 50.4925 53.1063 51.815 51.7838C53.1387 50.4625 53.9512 49.135 54.5612 47.5725C55.1462 46.06 55.5475 44.3312 55.6662 41.8013C55.78 39.265 55.81 38.4562 55.81 31.9987C55.81 25.5412 55.78 24.73 55.6662 22.1937C55.5475 19.6625 55.1462 17.935 54.5612 16.4225C53.9512 14.8587 53.1387 13.5325 51.815 12.21C50.4912 10.8875 49.1675 10.075 47.6012 9.4675C46.0837 8.88 44.3537 8.47875 41.8212 8.3625C39.2825 8.2475 38.475 8.21875 32.01 8.21875H32.015ZM29.8812 12.5037C30.515 12.5025 31.2212 12.5037 32.0162 12.5037C38.37 12.5037 39.1225 12.5263 41.6312 12.64C43.9512 12.7463 45.21 13.1338 46.0487 13.4588C47.1587 13.89 47.9512 14.405 48.7837 15.2375C49.6162 16.07 50.1325 16.8625 50.565 17.9725C50.8912 18.81 51.2787 20.0675 51.385 22.3863C51.4987 24.8925 51.5238 25.6462 51.5238 31.9912C51.5238 38.3375 51.4987 39.09 51.385 41.5963C51.2787 43.915 50.8912 45.1725 50.565 46.01C50.1337 47.12 49.6175 47.91 48.7837 48.7413C47.9512 49.5738 47.16 50.0887 46.0487 50.52C45.2112 50.8475 43.9512 51.2338 41.6312 51.3388C39.1225 51.4525 38.3687 51.4775 32.0162 51.4775C25.6625 51.4775 24.9088 51.4525 22.4012 51.3388C20.0813 51.2313 18.8225 50.845 17.9825 50.5188C16.8725 50.0875 16.0787 49.5725 15.2462 48.74C14.4137 47.9075 13.8975 47.1175 13.465 46.0075C13.1387 45.17 12.7512 43.9125 12.645 41.5938C12.5312 39.0875 12.5087 38.3338 12.5087 31.985C12.5087 25.635 12.5312 24.8862 12.645 22.38C12.7512 20.0613 13.1387 18.8038 13.465 17.965C13.8962 16.855 14.4125 16.0625 15.2462 15.23C16.0787 14.3975 16.8725 13.8825 17.9825 13.45C18.8212 13.1225 20.0813 12.7362 22.4012 12.63C24.5963 12.5312 25.4475 12.5013 29.8825 12.4963L29.8812 12.5037ZM44.7175 16.4525C43.1413 16.4525 41.8625 17.7287 41.8625 19.305C41.8625 20.88 43.1413 22.1587 44.7175 22.1587C46.2937 22.1587 47.5725 20.8812 47.5725 19.305C47.5725 17.7287 46.2937 16.4513 44.7175 16.4525ZM32.015 19.7863C25.2662 19.7863 19.795 25.2538 19.795 31.9975C19.795 38.7413 25.2662 44.2063 32.015 44.2063C38.7638 44.2063 44.2325 38.7413 44.2325 31.9975C44.2325 25.2538 38.7638 19.7863 32.015 19.7863ZM32.015 24.0712C36.395 24.0712 39.9475 27.62 39.9475 31.9975C39.9475 36.375 36.3962 39.9238 32.015 39.9238C27.6337 39.9238 24.0825 36.375 24.0825 31.9975C24.0837 27.6188 27.635 24.0712 32.015 24.0712Z" fill="white"/>
</g>
<defs>
<radialGradient id="paint0_radial_1079_2620" cx="0" cy="0" r="1" gradientUnits="userSpaceOnUse" gradientTransform="translate(61.9336 29.998) rotate(164.251) scale(40.8925 29.4611)">
<stop stop-color="#FF005F"/>
<stop offset="1" stop-color="#FC01D8"/>
</radialGradient>
<radialGradient id="paint1_radial_1079_2620" cx="0" cy="0" r="1" gradientUnits="userSpaceOnUse" gradientTransform="translate(16.9993 68.9294) rotate(-90) scale(51.0861 54.2014)">
<stop stop-color="#FFCC00"/>
<stop offset="0.1242" stop-color="#FFCC00"/>
<stop offset="0.5672" stop-color="#FE4A05"/>
<stop offset="0.6942" stop-color="#FF0F3F"/>
<stop offset="1" stop-color="#FE0657" stop-opacity="0"/>
</radialGradient>
<radialGradient id="paint2_radial_1079_2620" cx="0" cy="0" r="1" gradientUnits="userSpaceOnUse" gradientTransform="translate(33.6164 63.0972) rotate(-59.8697) scale(21.1245 27.5019)">
<stop stop-color="#FFCC00"/>
<stop offset="1" stop-color="#FFCC00" stop-opacity="0"/>
</radialGradient>
<radialGradient id="paint3_radial_1079_2620" cx="0" cy="0" r="1" gradientUnits="userSpaceOnUse" gradientTransform="translate(8.6833 2.60816) rotate(164.274) scale(40.4387 13.7775)">
<stop stop-color="#780CFF"/>
<stop offset="1" stop-color="#820BFF" stop-opacity="0"/>
</radialGradient>
<clipPath id="clip0_1079_2620">
<rect width="64" height="64" fill="white"/>
</clipPath>
</defs>
</svg>
