<svg width="88" height="88" viewBox="0 0 88 88" fill="none" xmlns="http://www.w3.org/2000/svg">
<g id="Instagram logo" clip-path="url(#clip0_1079_2620)" filter="url(#filter0_dd_1079_2620)">
<g id="Group">
<path id="Vector" d="M44.0097 2C30.651 2 26.7435 2.01375 25.9835 2.07625C23.2422 2.305 21.536 2.73625 19.6772 3.6625C18.2447 4.37375 17.1147 5.19875 16.001 6.355C13.9697 8.4625 12.7397 11.0562 12.2947 14.1387C12.0785 15.635 12.0147 15.9412 12.0022 23.5862C11.9972 26.135 12.0022 29.4887 12.0022 33.9875C12.0022 47.34 12.0172 51.2437 12.081 52.0025C12.3022 54.6712 12.721 56.35 13.6072 58.1862C15.301 61.7012 18.5347 64.34 22.3435 65.325C23.6622 65.665 25.1197 65.8512 26.9897 65.94C27.7822 65.975 35.8597 65.9987 43.9422 65.9987C52.0247 65.9987 60.106 65.9887 60.8797 65.95C63.046 65.8475 64.3035 65.6787 65.6935 65.32C69.5272 64.33 72.7022 61.7312 74.4297 58.1662C75.2985 56.3737 75.7385 54.6312 75.9385 52.1025C75.9822 51.5512 75.9997 42.7587 75.9997 33.9787C75.9997 25.1975 75.9797 16.4212 75.9372 15.87C75.736 13.3 75.2947 11.5712 74.3985 9.745C73.6622 8.25 72.846 7.1325 71.6597 5.99125C69.5422 3.96875 66.9535 2.7375 63.8685 2.2925C62.3722 2.0775 62.0747 2.01375 54.426 2H44.0097Z" fill="url(#paint0_radial_1079_2620)"/>
<path id="Vector_2" d="M44.0097 2C30.651 2 26.7435 2.01375 25.9835 2.07625C23.2422 2.305 21.536 2.73625 19.6772 3.6625C18.2447 4.37375 17.1147 5.19875 16.001 6.355C13.9697 8.4625 12.7397 11.0562 12.2947 14.1387C12.0785 15.635 12.0147 15.9412 12.0022 23.5862C11.9972 26.135 12.0022 29.4887 12.0022 33.9875C12.0022 47.34 12.0172 51.2437 12.081 52.0025C12.3022 54.6712 12.721 56.35 13.6072 58.1862C15.301 61.7012 18.5347 64.34 22.3435 65.325C23.6622 65.665 25.1197 65.8512 26.9897 65.94C27.7822 65.975 35.8597 65.9987 43.9422 65.9987C52.0247 65.9987 60.106 65.9887 60.8797 65.95C63.046 65.8475 64.3035 65.6787 65.6935 65.32C69.5272 64.33 72.7022 61.7312 74.4297 58.1662C75.2985 56.3737 75.7385 54.6312 75.9385 52.1025C75.9822 51.5512 75.9997 42.7587 75.9997 33.9787C75.9997 25.1975 75.9797 16.4212 75.9372 15.87C75.736 13.3 75.2947 11.5712 74.3985 9.745C73.6622 8.25 72.846 7.1325 71.6597 5.99125C69.5422 3.96875 66.9535 2.7375 63.8685 2.2925C62.3722 2.0775 62.0747 2.01375 54.426 2H44.0097Z" fill="url(#paint1_radial_1079_2620)"/>
<path id="Vector_3" d="M44.0097 2C30.651 2 26.7435 2.01375 25.9835 2.07625C23.2422 2.305 21.536 2.73625 19.6772 3.6625C18.2447 4.37375 17.1147 5.19875 16.001 6.355C13.9697 8.4625 12.7397 11.0562 12.2947 14.1387C12.0785 15.635 12.0147 15.9412 12.0022 23.5862C11.9972 26.135 12.0022 29.4887 12.0022 33.9875C12.0022 47.34 12.0172 51.2437 12.081 52.0025C12.3022 54.6712 12.721 56.35 13.6072 58.1862C15.301 61.7012 18.5347 64.34 22.3435 65.325C23.6622 65.665 25.1197 65.8512 26.9897 65.94C27.7822 65.975 35.8597 65.9987 43.9422 65.9987C52.0247 65.9987 60.106 65.9887 60.8797 65.95C63.046 65.8475 64.3035 65.6787 65.6935 65.32C69.5272 64.33 72.7022 61.7312 74.4297 58.1662C75.2985 56.3737 75.7385 54.6312 75.9385 52.1025C75.9822 51.5512 75.9997 42.7587 75.9997 33.9787C75.9997 25.1975 75.9797 16.4212 75.9372 15.87C75.736 13.3 75.2947 11.5712 74.3985 9.745C73.6622 8.25 72.846 7.1325 71.6597 5.99125C69.5422 3.96875 66.9535 2.7375 63.8685 2.2925C62.3722 2.0775 62.0747 2.01375 54.426 2H44.0097Z" fill="url(#paint2_radial_1079_2620)"/>
<path id="Vector_4" d="M44.0097 2C30.651 2 26.7435 2.01375 25.9835 2.07625C23.2422 2.305 21.536 2.73625 19.6772 3.6625C18.2447 4.37375 17.1147 5.19875 16.001 6.355C13.9697 8.4625 12.7397 11.0562 12.2947 14.1388C12.0785 15.635 12.0147 15.9413 12.0022 23.5863C11.9972 26.135 12.0022 29.4888 12.0022 33.9875C12.0022 47.34 12.0172 51.2437 12.081 52.0025C12.3022 54.6712 12.721 56.35 13.6072 58.1862C15.301 61.7012 18.5347 64.34 22.3435 65.325C23.6622 65.665 25.1197 65.8512 26.9897 65.94C27.7822 65.975 35.8597 65.9987 43.9422 65.9987C52.0247 65.9987 60.106 65.9888 60.8797 65.95C63.046 65.8475 64.3035 65.6787 65.6935 65.32C69.5272 64.33 72.7022 61.7312 74.4297 58.1662C75.2985 56.3737 75.7385 54.6313 75.9385 52.1025C75.9822 51.5513 75.9997 42.7587 75.9997 33.9787C75.9997 25.1975 75.9797 16.4212 75.9372 15.87C75.736 13.3 75.2947 11.5712 74.3985 9.745C73.6622 8.25 72.846 7.1325 71.6597 5.99125C69.5422 3.96875 66.9535 2.7375 63.8685 2.2925C62.3722 2.0775 62.0747 2.01375 54.426 2H44.0097Z" fill="url(#paint3_radial_1079_2620)"/>
<path id="Vector_5" d="M44.015 10.2188C37.5525 10.2188 36.7412 10.2475 34.2037 10.3625C31.67 10.4788 29.9412 10.8788 28.4288 11.4675C26.8637 12.075 25.5363 12.8875 24.2137 14.2088C22.89 15.53 22.0775 16.8575 21.4675 18.42C20.8775 19.9325 20.4762 21.6613 20.3625 24.1913C20.2487 26.7275 20.2188 27.5387 20.2188 33.9963C20.2188 40.4538 20.2475 41.2625 20.3625 43.7988C20.4787 46.33 20.88 48.0575 21.4675 49.57C22.0762 51.1338 22.8887 52.46 24.2125 53.7825C25.535 55.105 26.8625 55.92 28.4262 56.5275C29.94 57.115 31.67 57.5163 34.2025 57.6325C36.7413 57.7475 37.5512 57.7763 44.0137 57.7763C50.4762 57.7763 51.285 57.7475 53.8237 57.6325C56.3575 57.5163 58.0887 57.1162 59.6025 56.5275C61.1675 55.92 62.4925 55.1063 63.815 53.7838C65.1387 52.4625 65.9512 51.135 66.5612 49.5725C67.1462 48.06 67.5475 46.3312 67.6662 43.8013C67.78 41.265 67.81 40.4562 67.81 33.9987C67.81 27.5412 67.78 26.73 67.6662 24.1937C67.5475 21.6625 67.1462 19.935 66.5612 18.4225C65.9512 16.8587 65.1387 15.5325 63.815 14.21C62.4912 12.8875 61.1675 12.075 59.6012 11.4675C58.0837 10.88 56.3537 10.4788 53.8212 10.3625C51.2825 10.2475 50.475 10.2188 44.01 10.2188H44.015ZM41.8812 14.5037C42.515 14.5025 43.2212 14.5037 44.0162 14.5037C50.37 14.5037 51.1225 14.5263 53.6312 14.64C55.9512 14.7463 57.21 15.1338 58.0487 15.4588C59.1587 15.89 59.9512 16.405 60.7837 17.2375C61.6162 18.07 62.1325 18.8625 62.565 19.9725C62.8912 20.81 63.2787 22.0675 63.385 24.3863C63.4987 26.8925 63.5238 27.6462 63.5238 33.9912C63.5238 40.3375 63.4987 41.09 63.385 43.5963C63.2787 45.915 62.8912 47.1725 62.565 48.01C62.1337 49.12 61.6175 49.91 60.7837 50.7413C59.9512 51.5738 59.16 52.0887 58.0487 52.52C57.2112 52.8475 55.9512 53.2338 53.6312 53.3388C51.1225 53.4525 50.3687 53.4775 44.0162 53.4775C37.6625 53.4775 36.9088 53.4525 34.4012 53.3388C32.0813 53.2313 30.8225 52.845 29.9825 52.5188C28.8725 52.0875 28.0787 51.5725 27.2462 50.74C26.4137 49.9075 25.8975 49.1175 25.465 48.0075C25.1387 47.17 24.7512 45.9125 24.645 43.5938C24.5312 41.0875 24.5087 40.3338 24.5087 33.985C24.5087 27.635 24.5312 26.8862 24.645 24.38C24.7512 22.0613 25.1387 20.8038 25.465 19.965C25.8962 18.855 26.4125 18.0625 27.2462 17.23C28.0787 16.3975 28.8725 15.8825 29.9825 15.45C30.8212 15.1225 32.0813 14.7362 34.4012 14.63C36.5963 14.5312 37.4475 14.5013 41.8825 14.4963L41.8812 14.5037ZM56.7175 18.4525C55.1413 18.4525 53.8625 19.7287 53.8625 21.305C53.8625 22.88 55.1413 24.1587 56.7175 24.1587C58.2937 24.1587 59.5725 22.8812 59.5725 21.305C59.5725 19.7287 58.2937 18.4513 56.7175 18.4525ZM44.015 21.7863C37.2662 21.7863 31.795 27.2538 31.795 33.9975C31.795 40.7413 37.2662 46.2063 44.015 46.2063C50.7638 46.2063 56.2325 40.7413 56.2325 33.9975C56.2325 27.2538 50.7638 21.7863 44.015 21.7863ZM44.015 26.0712C48.395 26.0712 51.9475 29.62 51.9475 33.9975C51.9475 38.375 48.3962 41.9238 44.015 41.9238C39.6337 41.9238 36.0825 38.375 36.0825 33.9975C36.0837 29.6188 39.635 26.0712 44.015 26.0712Z" fill="white"/>
</g>
</g>
<defs>
<filter id="filter0_dd_1079_2620" x="0" y="0" width="88" height="88" filterUnits="userSpaceOnUse" color-interpolation-filters="sRGB">
<feFlood flood-opacity="0" result="BackgroundImageFix"/>
<feColorMatrix in="SourceAlpha" type="matrix" values="0 0 0 0 0 0 0 0 0 0 0 0 0 0 0 0 0 0 127 0" result="hardAlpha"/>
<feMorphology radius="2" operator="erode" in="SourceAlpha" result="effect1_dropShadow_1079_2620"/>
<feOffset dy="4"/>
<feGaussianBlur stdDeviation="3"/>
<feColorMatrix type="matrix" values="0 0 0 0 0 0 0 0 0 0 0 0 0 0 0 0 0 0 0.05 0"/>
<feBlend mode="normal" in2="BackgroundImageFix" result="effect1_dropShadow_1079_2620"/>
<feColorMatrix in="SourceAlpha" type="matrix" values="0 0 0 0 0 0 0 0 0 0 0 0 0 0 0 0 0 0 127 0" result="hardAlpha"/>
<feMorphology radius="3" operator="erode" in="SourceAlpha" result="effect2_dropShadow_1079_2620"/>
<feOffset dy="10"/>
<feGaussianBlur stdDeviation="7.5"/>
<feColorMatrix type="matrix" values="0 0 0 0 0 0 0 0 0 0 0 0 0 0 0 0 0 0 0.1 0"/>
<feBlend mode="normal" in2="effect1_dropShadow_1079_2620" result="effect2_dropShadow_1079_2620"/>
<feBlend mode="normal" in="SourceGraphic" in2="effect2_dropShadow_1079_2620" result="shape"/>
</filter>
<radialGradient id="paint0_radial_1079_2620" cx="0" cy="0" r="1" gradientUnits="userSpaceOnUse" gradientTransform="translate(73.9336 31.998) rotate(164.251) scale(40.8925 29.4611)">
<stop stop-color="#FF005F"/>
<stop offset="1" stop-color="#FC01D8"/>
</radialGradient>
<radialGradient id="paint1_radial_1079_2620" cx="0" cy="0" r="1" gradientUnits="userSpaceOnUse" gradientTransform="translate(28.9993 70.9294) rotate(-90) scale(51.0861 54.2014)">
<stop stop-color="#FFCC00"/>
<stop offset="0.1242" stop-color="#FFCC00"/>
<stop offset="0.5672" stop-color="#FE4A05"/>
<stop offset="0.6942" stop-color="#FF0F3F"/>
<stop offset="1" stop-color="#FE0657" stop-opacity="0"/>
</radialGradient>
<radialGradient id="paint2_radial_1079_2620" cx="0" cy="0" r="1" gradientUnits="userSpaceOnUse" gradientTransform="translate(45.6164 65.0972) rotate(-59.8697) scale(21.1245 27.5019)">
<stop stop-color="#FFCC00"/>
<stop offset="1" stop-color="#FFCC00" stop-opacity="0"/>
</radialGradient>
<radialGradient id="paint3_radial_1079_2620" cx="0" cy="0" r="1" gradientUnits="userSpaceOnUse" gradientTransform="translate(20.6833 4.60816) rotate(164.274) scale(40.4387 13.7775)">
<stop stop-color="#780CFF"/>
<stop offset="1" stop-color="#820BFF" stop-opacity="0"/>
</radialGradient>
<clipPath id="clip0_1079_2620">
<rect width="64" height="64" fill="white" transform="translate(12 2)"/>
</clipPath>
</defs>
</svg>
