<svg width="88" height="88" viewBox="0 0 88 88" fill="none" xmlns="http://www.w3.org/2000/svg">
<g clip-path="url(#clip0_2202_1400)" filter="url(#filter0_dd_2202_1400)">
<path d="M44.0097 2C30.651 2 26.7435 2.01375 25.9835 2.07625C23.2422 2.305 21.536 2.73625 19.6772 3.6625C18.2447 4.37375 17.1147 5.19875 16.001 6.355C13.9697 8.4625 12.7397 11.0562 12.2947 14.1387C12.0785 15.635 12.0147 15.9412 12.0022 23.5862C11.9972 26.135 12.0022 29.4887 12.0022 33.9875C12.0022 47.34 12.0172 51.2437 12.081 52.0025C12.3022 54.6712 12.721 56.35 13.6072 58.1862C15.301 61.7012 18.5347 64.34 22.3435 65.325C23.6622 65.665 25.1197 65.8512 26.9897 65.94C27.7822 65.975 35.8597 65.9987 43.9422 65.9987C52.0247 65.9987 60.106 65.9887 60.8797 65.95C63.046 65.8475 64.3035 65.6787 65.6935 65.32C69.5272 64.33 72.7022 61.7312 74.4297 58.1662C75.2985 56.3737 75.7385 54.6312 75.9385 52.1025C75.9822 51.5512 75.9997 42.7587 75.9997 33.9787C75.9997 25.1975 75.9797 16.4212 75.9372 15.87C75.736 13.3 75.2947 11.5712 74.3985 9.745C73.6622 8.25 72.846 7.1325 71.6597 5.99125C69.5422 3.96875 66.9535 2.7375 63.8685 2.2925C62.3722 2.0775 62.0747 2.01375 54.426 2H44.0097Z" fill="url(#paint0_radial_2202_1400)"/>
<path d="M44.0097 2C30.651 2 26.7435 2.01375 25.9835 2.07625C23.2422 2.305 21.536 2.73625 19.6772 3.6625C18.2447 4.37375 17.1147 5.19875 16.001 6.355C13.9697 8.4625 12.7397 11.0562 12.2947 14.1387C12.0785 15.635 12.0147 15.9412 12.0022 23.5862C11.9972 26.135 12.0022 29.4887 12.0022 33.9875C12.0022 47.34 12.0172 51.2437 12.081 52.0025C12.3022 54.6712 12.721 56.35 13.6072 58.1862C15.301 61.7012 18.5347 64.34 22.3435 65.325C23.6622 65.665 25.1197 65.8512 26.9897 65.94C27.7822 65.975 35.8597 65.9987 43.9422 65.9987C52.0247 65.9987 60.106 65.9887 60.8797 65.95C63.046 65.8475 64.3035 65.6787 65.6935 65.32C69.5272 64.33 72.7022 61.7312 74.4297 58.1662C75.2985 56.3737 75.7385 54.6312 75.9385 52.1025C75.9822 51.5512 75.9997 42.7587 75.9997 33.9787C75.9997 25.1975 75.9797 16.4212 75.9372 15.87C75.736 13.3 75.2947 11.5712 74.3985 9.745C73.6622 8.25 72.846 7.1325 71.6597 5.99125C69.5422 3.96875 66.9535 2.7375 63.8685 2.2925C62.3722 2.0775 62.0747 2.01375 54.426 2H44.0097Z" fill="url(#paint1_radial_2202_1400)"/>
<path d="M44.0097 2C30.651 2 26.7435 2.01375 25.9835 2.07625C23.2422 2.305 21.536 2.73625 19.6772 3.6625C18.2447 4.37375 17.1147 5.19875 16.001 6.355C13.9697 8.4625 12.7397 11.0562 12.2947 14.1387C12.0785 15.635 12.0147 15.9412 12.0022 23.5862C11.9972 26.135 12.0022 29.4887 12.0022 33.9875C12.0022 47.34 12.0172 51.2437 12.081 52.0025C12.3022 54.6712 12.721 56.35 13.6072 58.1862C15.301 61.7012 18.5347 64.34 22.3435 65.325C23.6622 65.665 25.1197 65.8512 26.9897 65.94C27.7822 65.975 35.8597 65.9987 43.9422 65.9987C52.0247 65.9987 60.106 65.9887 60.8797 65.95C63.046 65.8475 64.3035 65.6787 65.6935 65.32C69.5272 64.33 72.7022 61.7312 74.4297 58.1662C75.2985 56.3737 75.7385 54.6312 75.9385 52.1025C75.9822 51.5512 75.9997 42.7587 75.9997 33.9787C75.9997 25.1975 75.9797 16.4212 75.9372 15.87C75.736 13.3 75.2947 11.5712 74.3985 9.745C73.6622 8.25 72.846 7.1325 71.6597 5.99125C69.5422 3.96875 66.9535 2.7375 63.8685 2.2925C62.3722 2.0775 62.0747 2.01375 54.426 2H44.0097Z" fill="url(#paint2_radial_2202_1400)"/>
<path d="M44.0097 2C30.651 2 26.7435 2.01375 25.9835 2.07625C23.2422 2.305 21.536 2.73625 19.6772 3.6625C18.2447 4.37375 17.1147 5.19875 16.001 6.355C13.9697 8.4625 12.7397 11.0562 12.2947 14.1388C12.0785 15.635 12.0147 15.9413 12.0022 23.5863C11.9972 26.135 12.0022 29.4888 12.0022 33.9875C12.0022 47.34 12.0172 51.2437 12.081 52.0025C12.3022 54.6712 12.721 56.35 13.6072 58.1862C15.301 61.7012 18.5347 64.34 22.3435 65.325C23.6622 65.665 25.1197 65.8512 26.9897 65.94C27.7822 65.975 35.8597 65.9987 43.9422 65.9987C52.0247 65.9987 60.106 65.9888 60.8797 65.95C63.046 65.8475 64.3035 65.6787 65.6935 65.32C69.5272 64.33 72.7022 61.7312 74.4297 58.1662C75.2985 56.3737 75.7385 54.6313 75.9385 52.1025C75.9822 51.5513 75.9997 42.7587 75.9997 33.9787C75.9997 25.1975 75.9797 16.4212 75.9372 15.87C75.736 13.3 75.2947 11.5712 74.3985 9.745C73.6622 8.25 72.846 7.1325 71.6597 5.99125C69.5422 3.96875 66.9535 2.7375 63.8685 2.2925C62.3722 2.0775 62.0747 2.01375 54.426 2H44.0097Z" fill="url(#paint3_radial_2202_1400)"/>
<path d="M44.0116 10.2192C37.5491 10.2192 36.7378 10.248 34.2003 10.363C31.6666 10.4792 29.9378 10.8792 28.4253 11.468C26.8603 12.0755 25.5328 12.888 24.2103 14.2092C22.8866 15.5305 22.0741 16.858 21.4641 18.4205C20.8741 19.933 20.4728 21.6617 20.3591 24.1917C20.2453 26.728 20.2153 27.5392 20.2153 33.9967C20.2153 40.4542 20.2441 41.263 20.3591 43.7992C20.4753 46.3305 20.8766 48.058 21.4641 49.5705C22.0728 51.1342 22.8853 52.4605 24.2091 53.783C25.5316 55.1055 26.8591 55.9205 28.4228 56.528C29.9366 57.1155 31.6666 57.5167 34.1991 57.633C36.7378 57.748 37.5478 57.7767 44.0103 57.7767C50.4728 57.7767 51.2816 57.748 53.8203 57.633C56.3541 57.5167 58.0853 57.1167 59.5991 56.528C61.1641 55.9205 62.4891 55.1067 63.8116 53.7842C65.1353 52.463 65.9478 51.1355 66.5578 49.573C67.1428 48.0605 67.5441 46.3317 67.6628 43.8017C67.7766 41.2655 67.8066 40.4567 67.8066 33.9992C67.8066 27.5417 67.7766 26.7305 67.6628 24.1942C67.5441 21.663 67.1428 19.9355 66.5578 18.423C65.9478 16.8592 65.1353 15.533 63.8116 14.2105C62.4878 12.888 61.1641 12.0755 59.5978 11.468C58.0803 10.8805 56.3503 10.4792 53.8178 10.363C51.2791 10.248 50.4716 10.2192 44.0066 10.2192H44.0116ZM41.8778 14.5042C42.5116 14.503 43.2178 14.5042 44.0128 14.5042C50.3666 14.5042 51.1191 14.5267 53.6278 14.6405C55.9478 14.7467 57.2066 15.1342 58.0453 15.4592C59.1553 15.8905 59.9478 16.4055 60.7803 17.238C61.6128 18.0705 62.1291 18.863 62.5616 19.973C62.8878 20.8105 63.2753 22.068 63.3816 24.3867C63.4953 26.893 63.5203 27.6467 63.5203 33.9917C63.5203 40.338 63.4953 41.0905 63.3816 43.5967C63.2753 45.9155 62.8878 47.173 62.5616 48.0105C62.1303 49.1205 61.6141 49.9105 60.7803 50.7417C59.9478 51.5742 59.1566 52.0892 58.0453 52.5205C57.2078 52.848 55.9478 53.2342 53.6278 53.3392C51.1191 53.453 50.3653 53.478 44.0128 53.478C37.6591 53.478 36.9053 53.453 34.3978 53.3392C32.0778 53.2317 30.8191 52.8455 29.9791 52.5192C28.8691 52.088 28.0753 51.573 27.2428 50.7405C26.4103 49.908 25.8941 49.118 25.4616 48.008C25.1353 47.1705 24.7478 45.913 24.6416 43.5942C24.5278 41.088 24.5053 40.3342 24.5053 33.9855C24.5053 27.6355 24.5278 26.8867 24.6416 24.3805C24.7478 22.0617 25.1353 20.8042 25.4616 19.9655C25.8928 18.8555 26.4091 18.063 27.2428 17.2305C28.0753 16.398 28.8691 15.883 29.9791 15.4505C30.8178 15.123 32.0778 14.7367 34.3978 14.6305C36.5928 14.5317 37.4441 14.5017 41.8791 14.4967L41.8778 14.5042ZM56.7141 18.453C55.1378 18.453 53.8591 19.7292 53.8591 21.3055C53.8591 22.8805 55.1378 24.1592 56.7141 24.1592C58.2903 24.1592 59.5691 22.8817 59.5691 21.3055C59.5691 19.7292 58.2903 18.4517 56.7141 18.453ZM44.0116 21.7867C37.2628 21.7867 31.7916 27.2542 31.7916 33.998C31.7916 40.7417 37.2628 46.2067 44.0116 46.2067C50.7603 46.2067 56.2291 40.7417 56.2291 33.998C56.2291 27.2542 50.7603 21.7867 44.0116 21.7867ZM44.0116 26.0717C48.3916 26.0717 51.9441 29.6205 51.9441 33.998C51.9441 38.3755 48.3928 41.9242 44.0116 41.9242C39.6303 41.9242 36.0791 38.3755 36.0791 33.998C36.0803 29.6192 39.6316 26.0717 44.0116 26.0717Z" fill="white"/>
</g>
<defs>
<filter id="filter0_dd_2202_1400" x="0" y="0" width="88" height="88" filterUnits="userSpaceOnUse" color-interpolation-filters="sRGB">
<feFlood flood-opacity="0" result="BackgroundImageFix"/>
<feColorMatrix in="SourceAlpha" type="matrix" values="0 0 0 0 0 0 0 0 0 0 0 0 0 0 0 0 0 0 127 0" result="hardAlpha"/>
<feMorphology radius="2" operator="erode" in="SourceAlpha" result="effect1_dropShadow_2202_1400"/>
<feOffset dy="4"/>
<feGaussianBlur stdDeviation="3"/>
<feColorMatrix type="matrix" values="0 0 0 0 0 0 0 0 0 0 0 0 0 0 0 0 0 0 0.05 0"/>
<feBlend mode="normal" in2="BackgroundImageFix" result="effect1_dropShadow_2202_1400"/>
<feColorMatrix in="SourceAlpha" type="matrix" values="0 0 0 0 0 0 0 0 0 0 0 0 0 0 0 0 0 0 127 0" result="hardAlpha"/>
<feMorphology radius="3" operator="erode" in="SourceAlpha" result="effect2_dropShadow_2202_1400"/>
<feOffset dy="10"/>
<feGaussianBlur stdDeviation="7.5"/>
<feColorMatrix type="matrix" values="0 0 0 0 0 0 0 0 0 0 0 0 0 0 0 0 0 0 0.1 0"/>
<feBlend mode="normal" in2="effect1_dropShadow_2202_1400" result="effect2_dropShadow_2202_1400"/>
<feBlend mode="normal" in="SourceGraphic" in2="effect2_dropShadow_2202_1400" result="shape"/>
</filter>
<radialGradient id="paint0_radial_2202_1400" cx="0" cy="0" r="1" gradientUnits="userSpaceOnUse" gradientTransform="translate(73.9336 31.998) rotate(164.251) scale(40.8925 29.4611)">
<stop stop-color="#FF005F"/>
<stop offset="1" stop-color="#FC01D8"/>
</radialGradient>
<radialGradient id="paint1_radial_2202_1400" cx="0" cy="0" r="1" gradientUnits="userSpaceOnUse" gradientTransform="translate(28.9993 70.9294) rotate(-90) scale(51.0861 54.2014)">
<stop stop-color="#FFCC00"/>
<stop offset="0.1242" stop-color="#FFCC00"/>
<stop offset="0.5672" stop-color="#FE4A05"/>
<stop offset="0.6942" stop-color="#FF0F3F"/>
<stop offset="1" stop-color="#FE0657" stop-opacity="0"/>
</radialGradient>
<radialGradient id="paint2_radial_2202_1400" cx="0" cy="0" r="1" gradientUnits="userSpaceOnUse" gradientTransform="translate(45.6164 65.0972) rotate(-59.8697) scale(21.1245 27.5019)">
<stop stop-color="#FFCC00"/>
<stop offset="1" stop-color="#FFCC00" stop-opacity="0"/>
</radialGradient>
<radialGradient id="paint3_radial_2202_1400" cx="0" cy="0" r="1" gradientUnits="userSpaceOnUse" gradientTransform="translate(20.6833 4.60816) rotate(164.274) scale(40.4387 13.7775)">
<stop stop-color="#780CFF"/>
<stop offset="1" stop-color="#820BFF" stop-opacity="0"/>
</radialGradient>
<clipPath id="clip0_2202_1400">
<rect width="64" height="64" fill="white" transform="translate(12 2)"/>
</clipPath>
</defs>
</svg>
