<svg width="24" height="24" viewBox="0 0 24 24" fill="none" xmlns="http://www.w3.org/2000/svg">
<g id="link-03">
<path id="Vector" d="M9.52344 14.4365L14.4364 9.52344" stroke="white" stroke-width="1.5" stroke-linecap="round"/>
<path id="Vector_2" d="M12.5704 15.1103C13.3101 16.2507 13.1128 17.4197 12.2583 18.2742L9.26304 21.2695C8.28464 22.2479 6.69833 22.2479 5.71993 21.2695L2.7338 18.2833C1.7554 17.3049 1.7554 15.7186 2.7338 14.7402L5.72901 11.745C6.43095 11.043 7.76507 10.6377 8.91153 11.4679M15.1103 12.5705C16.2507 13.3102 17.4196 13.1128 18.2741 12.2583L21.2694 9.26309C22.2478 8.28468 22.2478 6.69837 21.2694 5.71996L18.2832 2.73381C17.3048 1.7554 15.7186 1.7554 14.7402 2.73381L11.745 5.72904C11.043 6.43098 10.6377 7.76511 11.4679 8.91157" stroke="white" stroke-width="1.5" stroke-linecap="round" stroke-linejoin="round"/>
</g>
</svg>
