<svg width="193" height="15" viewBox="0 0 193 15" fill="none" xmlns="http://www.w3.org/2000/svg">
<path d="M8.69709 4.15589C8.64311 3.61162 8.41146 3.1888 8.00213 2.88743C7.5928 2.58606 7.03729 2.43537 6.33558 2.43537C5.85878 2.43537 5.4562 2.50284 5.12784 2.63778C4.79948 2.76823 4.54759 2.9504 4.37216 3.1843C4.20123 3.41821 4.11577 3.68359 4.11577 3.98047C4.10677 4.22786 4.1585 4.44377 4.27095 4.6282C4.3879 4.81262 4.54759 4.9723 4.75 5.10724C4.95241 5.23769 5.18632 5.35239 5.4517 5.45135C5.71709 5.54581 6.00047 5.62678 6.30185 5.69425L7.54332 5.99112C8.14607 6.12606 8.69934 6.30599 9.20312 6.53089C9.70691 6.7558 10.1432 7.03243 10.5121 7.36079C10.8809 7.68916 11.1665 8.07599 11.369 8.52131C11.5759 8.96662 11.6816 9.47715 11.6861 10.0529C11.6816 10.8986 11.4657 11.6317 11.0384 12.2525C10.6155 12.8687 10.0038 13.3478 9.20312 13.6896C8.40696 14.027 7.44661 14.1957 6.32209 14.1957C5.20656 14.1957 4.23497 14.0247 3.40732 13.6829C2.58416 13.341 1.94093 12.835 1.47763 12.1648C1.01882 11.4901 0.778172 10.6557 0.755682 9.66158H3.58274C3.61423 10.1249 3.74692 10.5117 3.98082 10.8221C4.21922 11.128 4.53634 11.3596 4.93217 11.517C5.3325 11.67 5.78456 11.7464 6.28835 11.7464C6.78314 11.7464 7.21271 11.6745 7.57706 11.5305C7.9459 11.3866 8.23153 11.1864 8.43395 10.93C8.63636 10.6737 8.73757 10.379 8.73757 10.0462C8.73757 9.7358 8.64536 9.47491 8.46094 9.26349C8.28101 9.05208 8.01563 8.87216 7.66477 8.72372C7.31842 8.57528 6.89335 8.44034 6.38956 8.31889L4.88494 7.94105C3.71993 7.65767 2.80007 7.21461 2.12536 6.61186C1.45064 6.00911 1.11553 5.19721 1.12003 4.17614C1.11553 3.33949 1.33819 2.60855 1.788 1.98331C2.24231 1.35807 2.86529 0.870028 3.65696 0.519176C4.44863 0.168323 5.34825 -0.00710279 6.35582 -0.00710279C7.38139 -0.00710279 8.27652 0.168323 9.04119 0.519176C9.81037 0.870028 10.4086 1.35807 10.8359 1.98331C11.2633 2.60855 11.4837 3.33274 11.4972 4.15589H8.69709ZM14.4112 0.181818H18.0142L21.8196 9.46591H21.9815L25.7869 0.181818H29.3899V14H26.5561V5.00604H26.4414L22.8654 13.9325H20.9357L17.3597 4.9723H17.245V14H14.4112V0.181818ZM34.9387 14H31.808L36.5782 0.181818H40.3432L45.1066 14H41.976L38.5147 3.33949H38.4067L34.9387 14ZM34.743 8.56854H42.1379V10.8491H34.743V8.56854ZM47.5298 14V0.181818H52.9815C54.0251 0.181818 54.9157 0.368489 55.6534 0.741832C56.3956 1.11068 56.9601 1.63471 57.3469 2.31392C57.7383 2.98864 57.9339 3.78255 57.9339 4.69567C57.9339 5.61328 57.736 6.4027 57.3402 7.06392C56.9444 7.72064 56.3708 8.22443 55.6197 8.57528C54.873 8.92614 53.9689 9.10156 52.9073 9.10156H49.2571V6.75355H52.435C52.9928 6.75355 53.4561 6.67708 53.8249 6.52415C54.1938 6.37121 54.4682 6.14181 54.6481 5.83594C54.8325 5.53007 54.9247 5.14998 54.9247 4.69567C54.9247 4.23686 54.8325 3.85002 54.6481 3.53516C54.4682 3.22029 54.1915 2.98189 53.8182 2.81996C53.4493 2.65353 52.9838 2.57031 52.4215 2.57031H50.4513V14H47.5298ZM54.9922 7.71165L58.4265 14H55.2013L51.8413 7.71165H54.9922ZM60.2323 2.59055V0.181818H71.581V2.59055H67.3505V14H64.4628V2.59055H60.2323ZM79.3674 0.181818H82.9704L86.7758 9.46591H86.9378L90.7431 0.181818H94.3461V14H91.5123V5.00604H91.3976L87.8216 13.9325H85.8919L82.3159 4.9723H82.2012V14H79.3674V0.181818ZM97.5132 14V0.181818H106.824V2.59055H100.435V5.88317H106.345V8.2919H100.435V11.5913H106.851V14H97.5132ZM121.465 0.181818V14H118.941L112.93 5.30291H112.828V14H109.907V0.181818H112.471L118.435 8.87216H118.557V0.181818H121.465ZM133.174 0.181818H136.095V9.15554C136.095 10.1631 135.855 11.0447 135.373 11.8004C134.897 12.5561 134.229 13.1454 133.369 13.5682C132.51 13.9865 131.51 14.1957 130.367 14.1957C129.22 14.1957 128.217 13.9865 127.358 13.5682C126.499 13.1454 125.831 12.5561 125.354 11.8004C124.877 11.0447 124.639 10.1631 124.639 9.15554V0.181818H127.56V8.90589C127.56 9.43217 127.675 9.89998 127.904 10.3093C128.138 10.7186 128.467 11.0402 128.889 11.2741C129.312 11.508 129.805 11.625 130.367 11.625C130.934 11.625 131.426 11.508 131.845 11.2741C132.267 11.0402 132.594 10.7186 132.823 10.3093C133.057 9.89998 133.174 9.43217 133.174 8.90589V0.181818ZM156.609 5.01953H153.653C153.599 4.63719 153.489 4.29758 153.323 4.00071C153.156 3.69934 152.943 3.44294 152.682 3.23153C152.421 3.02012 152.119 2.85819 151.778 2.74574C151.44 2.63329 151.074 2.57706 150.678 2.57706C149.963 2.57706 149.34 2.75473 148.809 3.11008C148.278 3.46094 147.867 3.97372 147.574 4.64844C147.282 5.31865 147.136 6.13281 147.136 7.09091C147.136 8.07599 147.282 8.90365 147.574 9.57386C147.871 10.2441 148.285 10.7501 148.816 11.092C149.346 11.4338 149.96 11.6048 150.658 11.6048C151.049 11.6048 151.411 11.553 151.744 11.4496C152.081 11.3461 152.38 11.1954 152.641 10.9975C152.902 10.7951 153.118 10.55 153.289 10.2621C153.464 9.97419 153.586 9.64583 153.653 9.27699L156.609 9.29048C156.532 9.92472 156.341 10.5365 156.035 11.1257C155.734 11.7105 155.327 12.2345 154.814 12.6978C154.306 13.1566 153.698 13.521 152.992 13.7908C152.29 14.0562 151.496 14.1889 150.61 14.1889C149.378 14.1889 148.276 13.91 147.304 13.3523C146.337 12.7945 145.572 11.9871 145.01 10.93C144.452 9.87299 144.174 8.59328 144.174 7.09091C144.174 5.58404 144.457 4.30208 145.024 3.24503C145.59 2.18797 146.36 1.38281 147.331 0.829546C148.303 0.27178 149.396 -0.00710279 150.61 -0.00710279C151.411 -0.00710279 152.153 0.10535 152.837 0.330255C153.525 0.555161 154.135 0.883522 154.665 1.31534C155.196 1.74266 155.628 2.26669 155.961 2.88743C156.298 3.50817 156.514 4.21887 156.609 5.01953ZM172.162 7.09091C172.162 8.59777 171.876 9.87973 171.305 10.9368C170.738 11.9938 169.964 12.8013 168.984 13.359C168.008 13.9123 166.91 14.1889 165.691 14.1889C164.463 14.1889 163.361 13.91 162.385 13.3523C161.409 12.7945 160.638 11.9871 160.071 10.93C159.504 9.87299 159.221 8.59328 159.221 7.09091C159.221 5.58404 159.504 4.30208 160.071 3.24503C160.638 2.18797 161.409 1.38281 162.385 0.829546C163.361 0.27178 164.463 -0.00710279 165.691 -0.00710279C166.91 -0.00710279 168.008 0.27178 168.984 0.829546C169.964 1.38281 170.738 2.18797 171.305 3.24503C171.876 4.30208 172.162 5.58404 172.162 7.09091ZM169.2 7.09091C169.2 6.11482 169.054 5.29167 168.761 4.62145C168.473 3.95123 168.066 3.44295 167.54 3.09659C167.014 2.75024 166.397 2.57706 165.691 2.57706C164.985 2.57706 164.369 2.75024 163.842 3.09659C163.316 3.44295 162.907 3.95123 162.614 4.62145C162.327 5.29167 162.183 6.11482 162.183 7.09091C162.183 8.067 162.327 8.89015 162.614 9.56037C162.907 10.2306 163.316 10.7389 163.842 11.0852C164.369 11.4316 164.985 11.6048 165.691 11.6048C166.397 11.6048 167.014 11.4316 167.54 11.0852C168.066 10.7389 168.473 10.2306 168.761 9.56037C169.054 8.89015 169.2 8.067 169.2 7.09091ZM178.007 0.181818V14H175.086V0.181818H178.007ZM192.729 0.181818V14H190.206L184.194 5.30291H184.093V14H181.171V0.181818H183.735L189.699 8.87216H189.821V0.181818H192.729Z" fill="#131D26"/>
</svg>
