<svg width="88" height="88" viewBox="0 0 88 88" fill="none" xmlns="http://www.w3.org/2000/svg">
<g id="Frame 3" filter="url(#filter0_dd_1079_2636)">
<rect x="12" y="2" width="64" height="64" rx="12" fill="#FFFC00"/>
<g id="layer2">
<g id="g823">
<g id="g819">
<path id="path817" d="M65.5747 44.9651C65.3861 44.3409 64.4834 43.9008 64.4834 43.9008C64.3981 43.8559 64.3218 43.8155 64.2589 43.784C62.7545 43.0565 61.4207 42.1808 60.298 41.1884C59.3953 40.389 58.6229 39.5088 58.0032 38.5747C57.2442 37.434 56.8895 36.482 56.7368 35.9655C56.6515 35.6287 56.6649 35.494 56.7368 35.3189C56.7952 35.1707 56.9703 35.0314 57.0511 34.9641C57.5586 34.6048 58.3759 34.0749 58.8789 33.7516C59.3145 33.4686 59.6872 33.2261 59.9073 33.0735C60.6123 32.5795 61.0974 32.0765 61.3803 31.5331C61.7485 30.8325 61.7934 30.0601 61.506 29.3012C61.1198 28.2773 60.1633 27.6665 58.9463 27.6665C58.6768 27.6665 58.3984 27.6979 58.1199 27.7563C57.4239 27.909 56.7637 28.156 56.2113 28.3716C56.1709 28.3895 56.126 28.3581 56.1305 28.3132C56.1889 26.9435 56.2563 25.1023 56.1036 23.3553C55.9688 21.7746 55.641 20.4408 55.1111 19.2777C54.5767 18.1101 53.8806 17.2478 53.3372 16.6236C52.8208 16.0308 51.9091 15.1551 50.535 14.3692C48.6039 13.2645 46.4034 12.7031 43.9963 12.7031C41.5938 12.7031 39.3977 13.2645 37.4622 14.3692C36.0072 15.2 35.0776 16.1386 34.6555 16.6236C34.1121 17.2478 33.416 18.1101 32.8816 19.2777C32.3472 20.4408 32.0238 21.7701 31.8891 23.3553C31.7364 25.1112 31.7993 26.8043 31.8622 28.3132C31.8622 28.3581 31.8217 28.3895 31.7768 28.3716C31.2245 28.156 30.5643 27.909 29.8682 27.7563C29.5943 27.6979 29.3159 27.6665 29.0419 27.6665C27.8294 27.6665 26.8729 28.2773 26.4822 29.3012C26.1948 30.0601 26.2397 30.8325 26.6079 31.5331C26.8953 32.0765 27.3758 32.5795 28.0809 33.0735C28.2965 33.2261 28.6737 33.4686 29.1093 33.7516C29.5988 34.0704 30.3937 34.5869 30.9056 34.9416C30.9685 34.9865 31.1841 35.1482 31.2514 35.3189C31.3233 35.4985 31.3367 35.6332 31.2424 35.9925C31.0853 36.5134 30.7305 37.4565 29.985 38.5747C29.3653 39.5133 28.5929 40.389 27.6902 41.1884C26.5675 42.1808 25.2337 43.0565 23.7293 43.784C23.6575 43.82 23.5721 43.8604 23.4823 43.9143C23.4823 43.9143 22.5841 44.3723 22.4135 44.9651C22.162 45.8408 22.8311 46.6627 23.5093 47.1028C24.623 47.8213 25.9792 48.2075 26.7651 48.4186C26.9851 48.4769 27.1827 48.5308 27.3624 48.5847C27.4746 48.6206 27.7576 48.7284 27.8788 48.8856C28.0315 49.0832 28.0495 49.3257 28.1034 49.5996C28.1887 50.0622 28.3818 50.6325 28.9521 51.0277C29.5808 51.4588 30.3757 51.4903 31.3861 51.5307C32.4415 51.5711 33.7528 51.6205 35.2572 52.119C35.9533 52.348 36.5865 52.7387 37.314 53.1878C38.8409 54.1264 40.7405 55.294 43.9829 55.294C47.2297 55.294 49.1428 54.1219 50.6787 53.1788C51.4062 52.7342 52.0304 52.348 52.713 52.1235C54.2174 51.625 55.5287 51.5756 56.5841 51.5352C57.5945 51.4948 58.3894 51.4678 59.0181 51.0322C59.6289 50.6101 59.804 49.9814 59.8848 49.5098C59.9297 49.2763 59.9567 49.0652 60.0914 48.8946C60.2082 48.7464 60.4686 48.6431 60.5899 48.6027C60.774 48.5443 60.9806 48.4904 61.2096 48.4275C61.9955 48.2165 62.9835 47.9695 64.1825 47.2914C65.6286 46.4695 65.7274 45.4636 65.5747 44.9651Z" fill="white"/>
</g>
<path id="path821" d="M66.8259 44.4836C66.5071 43.6124 65.8963 43.1498 65.2047 42.7636C65.0745 42.6873 64.9532 42.6244 64.8544 42.5795C64.6479 42.4717 64.4368 42.3684 64.2257 42.2607C62.0656 41.1155 60.3771 39.6695 59.2095 37.9585C58.8143 37.3791 58.5404 36.8582 58.3472 36.4316C58.2485 36.1442 58.2529 35.9825 58.3248 35.8343C58.3787 35.722 58.5224 35.6053 58.6032 35.5469C58.976 35.2999 59.3577 35.0529 59.6181 34.8867C60.0807 34.5859 60.449 34.3478 60.6825 34.1862C61.5717 33.5664 62.1914 32.9063 62.5776 32.1698C63.1255 31.1324 63.1928 29.9468 62.7707 28.8331C62.1869 27.2883 60.7229 26.3273 58.9535 26.3273C58.5853 26.3273 58.2125 26.3677 57.8443 26.4485C57.7455 26.471 57.6512 26.4934 57.5569 26.5159C57.5748 25.465 57.5479 24.3423 57.4536 23.2466C57.1213 19.3845 55.7695 17.3591 54.3594 15.7469C53.7711 15.0733 52.7472 14.0898 51.2113 13.2096C49.0692 11.9791 46.6442 11.3594 43.9991 11.3594C41.363 11.3594 38.938 11.9791 36.7958 13.2051C35.251 14.0853 34.2271 15.0733 33.6433 15.7424C32.2332 17.3546 30.8814 19.38 30.5491 23.2421C30.4548 24.3378 30.4324 25.4605 30.4458 26.5114C30.3515 26.4889 30.2527 26.4665 30.1584 26.444C29.7902 26.3632 29.4129 26.3228 29.0492 26.3228C27.2798 26.3228 25.8158 27.2838 25.232 28.8286C24.8099 29.9424 24.8772 31.1279 25.4251 32.1653C25.8113 32.9018 26.4355 33.562 27.3202 34.1817C27.5582 34.3478 27.922 34.5859 28.3845 34.8822C28.636 35.0439 28.9998 35.2819 29.3591 35.5199C29.4129 35.5559 29.606 35.6996 29.6734 35.8343C29.7498 35.987 29.7498 36.1531 29.6375 36.4585C29.4489 36.8762 29.1749 37.3881 28.7887 37.954C27.6436 39.629 26.0044 41.0481 23.9162 42.1798C22.807 42.7681 21.6573 43.1588 21.1723 44.4791C20.8041 45.4761 21.0466 46.6123 21.9762 47.5688C22.2815 47.8966 22.6677 48.1885 23.1527 48.458C24.2934 49.0867 25.2634 49.3966 26.0269 49.6076C26.1616 49.648 26.4715 49.7468 26.6062 49.8681C26.9475 50.1645 26.8981 50.6136 27.3517 51.2692C27.6256 51.6779 27.94 51.9563 28.2004 52.136C29.148 52.7916 30.2168 52.832 31.3485 52.8769C32.3679 52.9174 33.5265 52.9623 34.8468 53.3979C35.3947 53.5775 35.965 53.9278 36.6207 54.332C38.2015 55.3065 40.3705 56.6357 43.9946 56.6357C47.6232 56.6357 49.8012 55.2975 51.3955 54.323C52.0511 53.9233 52.617 53.573 53.1469 53.3979C54.4672 52.9623 55.6258 52.9174 56.6452 52.8769C57.7769 52.832 58.8412 52.7916 59.7933 52.136C60.0897 51.9294 60.4669 51.5926 60.7633 51.0806C61.0866 50.5282 61.0822 50.1375 61.3875 49.8726C61.5133 49.7648 61.7872 49.6705 61.9354 49.6256C62.7033 49.4145 63.6868 49.1047 64.8499 48.4625C65.3664 48.1795 65.7661 47.8697 66.0849 47.5149C66.0894 47.5104 66.0939 47.5059 66.0984 47.5014C66.9651 46.5584 67.1852 45.4581 66.8259 44.4836ZM63.606 46.2126C61.639 47.2993 60.3322 47.1826 59.3173 47.8338C58.455 48.3906 58.9625 49.5897 58.3383 50.0208C57.5658 50.5552 55.289 49.9849 52.3475 50.9549C49.9225 51.7587 48.3732 54.0625 44.0036 54.0625C39.625 54.0625 38.1206 51.7677 35.6597 50.9549C32.7182 49.9849 30.4368 50.5552 29.6689 50.0208C29.0447 49.5897 29.5522 48.3906 28.6899 47.8338C27.675 47.1781 26.3682 47.2949 24.4012 46.2126C23.1483 45.521 23.8578 45.0944 24.2755 44.8923C31.3979 41.4478 32.5296 36.1217 32.5835 35.722C32.6463 35.246 32.7137 34.8688 32.1883 34.3793C31.6808 33.9077 29.4219 32.5111 28.7977 32.0755C27.7603 31.3525 27.3068 30.6295 27.6436 29.7403C27.8771 29.125 28.4519 28.896 29.0582 28.896C29.2468 28.896 29.4399 28.9185 29.624 28.9589C30.7602 29.2059 31.8649 29.7762 32.5026 29.9289C32.5924 29.9513 32.6688 29.9603 32.7361 29.9603C33.0774 29.9603 33.1942 29.7897 33.1718 29.399C33.0999 28.155 32.9203 25.73 33.1179 23.4621C33.3873 20.3455 34.3933 18.8007 35.5878 17.431C36.1626 16.7753 38.8571 13.9281 44.0081 13.9281C49.1725 13.9281 51.8535 16.7753 52.4284 17.431C53.6229 18.7962 54.6289 20.341 54.8983 23.4621C55.0959 25.73 54.9253 28.155 54.8444 29.399C54.8175 29.8076 54.9432 29.9603 55.28 29.9603C55.3474 29.9603 55.4282 29.9513 55.5135 29.9289C56.1512 29.7762 57.256 29.2059 58.3922 28.9589C58.5763 28.9185 58.7694 28.896 58.958 28.896C59.5643 28.896 60.1391 29.1295 60.3726 29.7403C60.7094 30.6295 60.2514 31.3525 59.2185 32.0755C58.5942 32.5111 56.3354 33.9077 55.8279 34.3793C55.3025 34.8643 55.3698 35.2415 55.4327 35.722C55.4821 36.1217 56.6183 41.4478 63.7407 44.8923C64.1449 45.0944 64.8589 45.521 63.606 46.2126Z" fill="black"/>
</g>
</g>
</g>
<defs>
<filter id="filter0_dd_1079_2636" x="0" y="0" width="88" height="88" filterUnits="userSpaceOnUse" color-interpolation-filters="sRGB">
<feFlood flood-opacity="0" result="BackgroundImageFix"/>
<feColorMatrix in="SourceAlpha" type="matrix" values="0 0 0 0 0 0 0 0 0 0 0 0 0 0 0 0 0 0 127 0" result="hardAlpha"/>
<feMorphology radius="2" operator="erode" in="SourceAlpha" result="effect1_dropShadow_1079_2636"/>
<feOffset dy="4"/>
<feGaussianBlur stdDeviation="3"/>
<feColorMatrix type="matrix" values="0 0 0 0 0 0 0 0 0 0 0 0 0 0 0 0 0 0 0.05 0"/>
<feBlend mode="normal" in2="BackgroundImageFix" result="effect1_dropShadow_1079_2636"/>
<feColorMatrix in="SourceAlpha" type="matrix" values="0 0 0 0 0 0 0 0 0 0 0 0 0 0 0 0 0 0 127 0" result="hardAlpha"/>
<feMorphology radius="3" operator="erode" in="SourceAlpha" result="effect2_dropShadow_1079_2636"/>
<feOffset dy="10"/>
<feGaussianBlur stdDeviation="7.5"/>
<feColorMatrix type="matrix" values="0 0 0 0 0 0 0 0 0 0 0 0 0 0 0 0 0 0 0.1 0"/>
<feBlend mode="normal" in2="effect1_dropShadow_1079_2636" result="effect2_dropShadow_1079_2636"/>
<feBlend mode="normal" in="SourceGraphic" in2="effect2_dropShadow_1079_2636" result="shape"/>
</filter>
</defs>
</svg>
