<svg width="88" height="88" viewBox="0 0 88 88" fill="none" xmlns="http://www.w3.org/2000/svg">
<g filter="url(#filter0_dd_2202_1416)">
<rect x="12" y="2" width="64" height="64" rx="12" fill="#FFFC00"/>
<path d="M65.5768 44.9697C65.3882 44.3454 64.4855 43.9053 64.4855 43.9053C64.4002 43.8604 64.3238 43.82 64.261 43.7886C62.7565 43.0611 61.4228 42.1854 60.3001 41.1929C59.3974 40.3935 58.625 39.5133 58.0053 38.5792C57.2463 37.4386 56.8915 36.4865 56.7388 35.9701C56.6535 35.6333 56.667 35.4985 56.7388 35.3234C56.7972 35.1752 56.9724 35.036 57.0532 34.9686C57.5607 34.6094 58.378 34.0795 58.881 33.7561C59.3166 33.4732 59.6893 33.2307 59.9094 33.078C60.6144 32.584 61.0994 32.081 61.3823 31.5377C61.7506 30.8371 61.7955 30.0647 61.5081 29.3057C61.1219 28.2818 60.1653 27.6711 58.9483 27.6711C58.6789 27.6711 58.4005 27.7025 58.122 27.7609C57.4259 27.9136 56.7658 28.1606 56.2134 28.3761C56.173 28.3941 56.1281 28.3626 56.1326 28.3177C56.191 26.948 56.2583 25.1068 56.1056 23.3599C55.9709 21.7791 55.6431 20.4453 55.1132 19.2822C54.5788 18.1146 53.8827 17.2524 53.3393 16.6282C52.8229 16.0354 51.9112 15.1597 50.537 14.3738C48.606 13.269 46.4055 12.7077 43.9984 12.7077C41.5958 12.7077 39.3998 13.269 37.4643 14.3738C36.0093 15.2046 35.0797 16.1431 34.6575 16.6282C34.1141 17.2524 33.4181 18.1146 32.8837 19.2822C32.3492 20.4453 32.0259 21.7746 31.8912 23.3599C31.7385 25.1158 31.8014 26.8088 31.8642 28.3177C31.8642 28.3626 31.8238 28.3941 31.7789 28.3761C31.2265 28.1606 30.5664 27.9136 29.8703 27.7609C29.5964 27.7025 29.3179 27.6711 29.044 27.6711C27.8315 27.6711 26.8749 28.2818 26.4842 29.3057C26.1968 30.0647 26.2417 30.8371 26.61 31.5377C26.8974 32.081 27.3779 32.584 28.083 33.078C28.2985 33.2307 28.6758 33.4732 29.1114 33.7561C29.6009 34.075 30.3957 34.5914 30.9077 34.9462C30.9706 34.9911 31.1861 35.1528 31.2535 35.3234C31.3253 35.503 31.3388 35.6378 31.2445 35.997C31.0873 36.518 30.7326 37.461 29.9871 38.5792C29.3673 39.5178 28.5949 40.3935 27.6923 41.1929C26.5696 42.1854 25.2358 43.0611 23.7314 43.7886C23.6595 43.8245 23.5742 43.8649 23.4844 43.9188C23.4844 43.9188 22.5862 44.3769 22.4156 44.9697C22.1641 45.8454 22.8332 46.6672 23.5113 47.1073C24.6251 47.8258 25.9813 48.212 26.7672 48.4231C26.9872 48.4815 27.1848 48.5354 27.3644 48.5893C27.4767 48.6252 27.7596 48.733 27.8809 48.8901C28.0336 49.0877 28.0515 49.3302 28.1054 49.6042C28.1908 50.0667 28.3839 50.6371 28.9542 51.0323C29.5829 51.4634 30.3778 51.4948 31.3882 51.5352C32.4436 51.5757 33.7549 51.6251 35.2593 52.1235C35.9554 52.3526 36.5886 52.7433 37.3161 53.1923C38.843 54.1309 40.7426 55.2985 43.9849 55.2985C47.2318 55.2985 49.1449 54.1264 50.6807 53.1834C51.4083 52.7388 52.0325 52.3526 52.7151 52.128C54.2195 51.6295 55.5308 51.5801 56.5862 51.5397C57.5966 51.4993 58.3915 51.4724 59.0202 51.0368C59.6309 50.6146 59.8061 49.9859 59.8869 49.5144C59.9318 49.2808 59.9588 49.0698 60.0935 48.8991C60.2102 48.7509 60.4707 48.6476 60.592 48.6072C60.7761 48.5488 60.9827 48.495 61.2117 48.4321C61.9976 48.221 62.9856 47.974 64.1846 47.2959C65.6307 46.4741 65.7295 45.4682 65.5768 44.9697Z" fill="white"/>
<path d="M66.8257 44.4857C66.5068 43.6145 65.8961 43.152 65.2045 42.7658C65.0742 42.6894 64.953 42.6265 64.8542 42.5816C64.6476 42.4739 64.4366 42.3706 64.2255 42.2628C62.0654 41.1176 60.3769 39.6716 59.2092 37.9606C58.814 37.3813 58.5401 36.8603 58.347 36.4337C58.2482 36.1463 58.2527 35.9846 58.3246 35.8364C58.3784 35.7242 58.5221 35.6074 58.603 35.549C58.9757 35.302 59.3574 35.055 59.6179 34.8889C60.0805 34.588 60.4487 34.35 60.6822 34.1883C61.5714 33.5686 62.1911 32.9084 62.5774 32.1719C63.1252 31.1346 63.1926 29.949 62.7705 28.8353C62.1866 27.2904 60.7226 26.3294 58.9533 26.3294C58.585 26.3294 58.2123 26.3698 57.844 26.4506C57.7452 26.4731 57.6509 26.4955 57.5566 26.518C57.5746 25.4672 57.5476 24.3445 57.4533 23.2487C57.121 19.3866 55.7693 17.3612 54.3592 15.749C53.7709 15.0754 52.747 14.0919 51.2111 13.2117C49.069 11.9812 46.6439 11.3615 43.9989 11.3615C41.3628 11.3615 38.9377 11.9812 36.7956 13.2072C35.2508 14.0874 34.2268 15.0754 33.643 15.7445C32.2329 17.3567 30.8812 19.3821 30.5489 23.2442C30.4546 24.34 30.4321 25.4627 30.4456 26.5135C30.3513 26.4911 30.2525 26.4686 30.1582 26.4461C29.7899 26.3653 29.4127 26.3249 29.0489 26.3249C27.2796 26.3249 25.8156 27.2859 25.2318 28.8308C24.8096 29.9445 24.877 31.1301 25.4249 32.1674C25.8111 32.9039 26.4353 33.5641 27.32 34.1838C27.558 34.35 27.9217 34.588 28.3843 34.8844C28.6358 35.0461 28.9995 35.2841 29.3588 35.5221C29.4127 35.558 29.6058 35.7017 29.6732 35.8364C29.7495 35.9891 29.7495 36.1553 29.6372 36.4607C29.4486 36.8783 29.1747 37.3903 28.7885 37.9561C27.6433 39.6312 26.0042 41.0503 23.9159 42.182C22.8067 42.7703 21.6571 43.161 21.1721 44.4813C20.8038 45.4782 21.0463 46.6144 21.9759 47.5709C22.2813 47.8988 22.6675 48.1907 23.1525 48.4601C24.2932 49.0888 25.2632 49.3987 26.0266 49.6098C26.1614 49.6502 26.4712 49.749 26.6059 49.8702C26.9472 50.1666 26.8978 50.6157 27.3514 51.2714C27.6254 51.68 27.9397 51.9585 28.2002 52.1381C29.1477 52.7937 30.2166 52.8342 31.3482 52.8791C32.3677 52.9195 33.5263 52.9644 34.8466 53.4C35.3945 53.5796 35.9648 53.9299 36.6205 54.3341C38.2012 55.3086 40.3703 56.6379 43.9944 56.6379C47.6229 56.6379 49.801 55.2996 51.3952 54.3251C52.0509 53.9254 52.6167 53.5751 53.1466 53.4C54.4669 52.9644 55.6256 52.9195 56.645 52.8791C57.7767 52.8342 58.841 52.7937 59.793 52.1381C60.0894 51.9315 60.4667 51.5947 60.7631 51.0827C61.0864 50.5304 61.0819 50.1397 61.3873 49.8747C61.513 49.7669 61.787 49.6726 61.9352 49.6277C62.7031 49.4167 63.6866 49.1068 64.8497 48.4646C65.3661 48.1817 65.7658 47.8718 66.0847 47.517C66.0892 47.5126 66.0937 47.5081 66.0981 47.5036C66.9649 46.5605 67.1849 45.4603 66.8257 44.4857ZM63.6057 46.2147C61.6388 47.3015 60.3319 47.1847 59.317 47.8359C58.4548 48.3927 58.9622 49.5918 58.338 50.0229C57.5656 50.5573 55.2888 49.987 52.3473 50.957C49.9222 51.7609 48.3729 54.0646 44.0033 54.0646C39.6248 54.0646 38.1204 51.7698 35.6594 50.957C32.7179 49.987 30.4366 50.5573 29.6687 50.0229C29.0445 49.5918 29.5519 48.3927 28.6897 47.8359C27.6748 47.1802 26.3679 47.297 24.401 46.2147C23.148 45.5231 23.8576 45.0965 24.2752 44.8944C31.3976 41.45 32.5293 36.1239 32.5832 35.7242C32.6461 35.2481 32.7134 34.8709 32.188 34.3814C31.6806 33.9099 29.4217 32.5132 28.7975 32.0776C27.7601 31.3546 27.3065 30.6316 27.6433 29.7424C27.8768 29.1272 28.4517 28.8981 29.0579 28.8981C29.2465 28.8981 29.4396 28.9206 29.6238 28.961C30.7599 29.208 31.8647 29.7783 32.5024 29.931C32.5922 29.9535 32.6685 29.9625 32.7359 29.9625C33.0772 29.9625 33.194 29.7918 33.1715 29.4011C33.0997 28.1572 32.92 25.7321 33.1176 23.4643C33.3871 20.3476 34.393 18.8028 35.5876 17.4331C36.1624 16.7774 38.8569 13.9303 44.0078 13.9303C49.1723 13.9303 51.8533 16.7774 52.4281 17.4331C53.6227 18.7983 54.6286 20.3431 54.8981 23.4643C55.0957 25.7321 54.925 28.1572 54.8442 29.4011C54.8172 29.8098 54.943 29.9625 55.2798 29.9625C55.3471 29.9625 55.428 29.9535 55.5133 29.931C56.151 29.7783 57.2557 29.208 58.3919 28.961C58.576 28.9206 58.7691 28.8981 58.9578 28.8981C59.564 28.8981 60.1388 29.1317 60.3724 29.7424C60.7092 30.6316 60.2511 31.3546 59.2182 32.0776C58.594 32.5132 56.3351 33.9099 55.8277 34.3814C55.3022 34.8664 55.3696 35.2437 55.4325 35.7242C55.4819 36.1239 56.618 41.45 63.7405 44.8944C64.1446 45.0965 64.8587 45.5231 63.6057 46.2147Z" fill="black"/>
</g>
<defs>
<filter id="filter0_dd_2202_1416" x="0" y="0" width="88" height="88" filterUnits="userSpaceOnUse" color-interpolation-filters="sRGB">
<feFlood flood-opacity="0" result="BackgroundImageFix"/>
<feColorMatrix in="SourceAlpha" type="matrix" values="0 0 0 0 0 0 0 0 0 0 0 0 0 0 0 0 0 0 127 0" result="hardAlpha"/>
<feMorphology radius="2" operator="erode" in="SourceAlpha" result="effect1_dropShadow_2202_1416"/>
<feOffset dy="4"/>
<feGaussianBlur stdDeviation="3"/>
<feColorMatrix type="matrix" values="0 0 0 0 0 0 0 0 0 0 0 0 0 0 0 0 0 0 0.05 0"/>
<feBlend mode="normal" in2="BackgroundImageFix" result="effect1_dropShadow_2202_1416"/>
<feColorMatrix in="SourceAlpha" type="matrix" values="0 0 0 0 0 0 0 0 0 0 0 0 0 0 0 0 0 0 127 0" result="hardAlpha"/>
<feMorphology radius="3" operator="erode" in="SourceAlpha" result="effect2_dropShadow_2202_1416"/>
<feOffset dy="10"/>
<feGaussianBlur stdDeviation="7.5"/>
<feColorMatrix type="matrix" values="0 0 0 0 0 0 0 0 0 0 0 0 0 0 0 0 0 0 0.1 0"/>
<feBlend mode="normal" in2="effect1_dropShadow_2202_1416" result="effect2_dropShadow_2202_1416"/>
<feBlend mode="normal" in="SourceGraphic" in2="effect2_dropShadow_2202_1416" result="shape"/>
</filter>
</defs>
</svg>
