<svg width="88" height="88" viewBox="0 0 88 88" fill="none" xmlns="http://www.w3.org/2000/svg">
<g filter="url(#filter0_dd_2202_1407)">
<rect x="12" y="2" width="64" height="64" rx="12" fill="#010101"/>
<path fill-rule="evenodd" clip-rule="evenodd" d="M53.2595 27.4933C56.0612 29.495 59.4936 30.6728 63.2005 30.6728V23.543C62.4989 23.5432 61.7992 23.4701 61.1128 23.3246V28.9369C57.4062 28.9369 53.9742 27.759 51.1718 25.7574V40.3071C51.1718 47.5857 45.2684 53.4857 37.9865 53.4857C35.2696 53.4857 32.7442 52.6648 30.6462 51.2568C33.0406 53.7036 36.3796 55.2217 40.0737 55.2217C47.3561 55.2217 53.2597 49.3217 53.2597 42.0428L53.2595 27.4933ZM55.8348 20.3002C54.403 18.7368 53.463 16.7162 53.2595 14.4824V13.5654H51.2811C51.779 16.4044 53.4776 18.83 55.8348 20.3002ZM35.2519 45.6716C34.4521 44.6233 34.0197 43.3407 34.0216 42.0221C34.0216 38.693 36.7219 35.994 40.0532 35.994C40.674 35.9936 41.2911 36.0888 41.8828 36.2764V28.9873C41.1914 28.8926 40.4936 28.8525 39.7959 28.8673V34.5407C39.2039 34.3532 38.5866 34.2579 37.9655 34.2584C34.6342 34.2584 31.9342 36.9574 31.9342 40.2866C31.9342 42.6406 33.2838 44.6788 35.2519 45.6716Z" fill="#EE1D52"/>
<path fill-rule="evenodd" clip-rule="evenodd" d="M51.1701 25.7574C53.9726 27.759 57.4045 28.9369 61.1111 28.9369V23.3246C59.0421 22.8843 57.2104 21.8034 55.8332 20.3002C53.4759 18.83 51.7774 16.4044 51.2794 13.5654H46.0829V42.0426C46.0711 45.3624 43.3754 48.0504 40.0513 48.0504C38.0924 48.0504 36.3521 47.1172 35.25 45.6716C33.2819 44.6788 31.9322 42.6406 31.9322 40.2866C31.9322 36.9574 34.6323 34.2584 37.9636 34.2584C38.6018 34.2584 39.217 34.3577 39.794 34.5407V28.8673C32.6401 29.015 26.8865 34.8574 26.8865 42.0428C26.8865 45.6296 28.3193 48.8813 30.6446 51.257C32.7425 52.665 35.2679 53.486 37.9848 53.486C45.2668 53.486 51.1701 47.5857 51.1701 40.3074V25.7574Z" fill="white"/>
<path fill-rule="evenodd" clip-rule="evenodd" d="M61.1121 23.3257V21.8081C59.2462 21.8109 57.4172 21.2886 55.8342 20.301C57.2355 21.8344 59.0807 22.8919 61.1121 23.3257ZM51.2804 13.5664C51.2329 13.2951 51.1964 13.022 51.1711 12.7477V11.8307H43.996V40.3082C43.9844 43.6277 41.289 46.3157 37.9646 46.3157C36.9885 46.3157 36.0671 46.0843 35.251 45.6727C36.3531 47.1183 38.0934 48.0514 40.0523 48.0514C43.3762 48.0514 46.0721 45.3634 46.0839 42.0436V13.5664H51.2804ZM39.7952 28.8683V27.2527C39.1957 27.1707 38.5912 27.1298 37.9861 27.1301C30.7034 27.1301 24.8 33.0304 24.8 40.3082C24.8 44.8711 27.1202 48.8924 30.6458 51.2578C28.3206 48.8821 26.8877 45.6304 26.8877 42.0436C26.8877 34.8585 32.6411 29.016 39.7952 28.8683Z" fill="#69C9D0"/>
</g>
<defs>
<filter id="filter0_dd_2202_1407" x="0" y="0" width="88" height="88" filterUnits="userSpaceOnUse" color-interpolation-filters="sRGB">
<feFlood flood-opacity="0" result="BackgroundImageFix"/>
<feColorMatrix in="SourceAlpha" type="matrix" values="0 0 0 0 0 0 0 0 0 0 0 0 0 0 0 0 0 0 127 0" result="hardAlpha"/>
<feMorphology radius="2" operator="erode" in="SourceAlpha" result="effect1_dropShadow_2202_1407"/>
<feOffset dy="4"/>
<feGaussianBlur stdDeviation="3"/>
<feColorMatrix type="matrix" values="0 0 0 0 0 0 0 0 0 0 0 0 0 0 0 0 0 0 0.05 0"/>
<feBlend mode="normal" in2="BackgroundImageFix" result="effect1_dropShadow_2202_1407"/>
<feColorMatrix in="SourceAlpha" type="matrix" values="0 0 0 0 0 0 0 0 0 0 0 0 0 0 0 0 0 0 127 0" result="hardAlpha"/>
<feMorphology radius="3" operator="erode" in="SourceAlpha" result="effect2_dropShadow_2202_1407"/>
<feOffset dy="10"/>
<feGaussianBlur stdDeviation="7.5"/>
<feColorMatrix type="matrix" values="0 0 0 0 0 0 0 0 0 0 0 0 0 0 0 0 0 0 0.1 0"/>
<feBlend mode="normal" in2="effect1_dropShadow_2202_1407" result="effect2_dropShadow_2202_1407"/>
<feBlend mode="normal" in="SourceGraphic" in2="effect2_dropShadow_2202_1407" result="shape"/>
</filter>
</defs>
</svg>
