<svg width="64" height="64" viewBox="0 0 64 64" fill="none" xmlns="http://www.w3.org/2000/svg">
<rect width="64" height="64" rx="12" fill="#010101"/>
<path fill-rule="evenodd" clip-rule="evenodd" d="M41.2539 25.4904C44.0555 27.4921 47.488 28.67 51.1949 28.67V21.5401C50.4933 21.5404 49.7935 21.4672 49.1072 21.3217V26.934C45.4006 26.934 41.9686 25.7562 39.1662 23.7545V38.3043C39.1662 45.5829 33.2628 51.4829 25.9809 51.4829C23.264 51.4829 20.7385 50.6619 18.6406 49.2539C21.035 51.7007 24.374 53.2188 28.0681 53.2188C35.3505 53.2188 41.2541 47.3188 41.2541 40.0399L41.2539 25.4904ZM43.8292 18.2973C42.3974 16.734 41.4574 14.7133 41.2539 12.4795V11.5625H39.2755C39.7734 14.4015 41.472 16.8271 43.8292 18.2973ZM23.2463 43.6687C22.4464 42.6204 22.0141 41.3378 22.016 40.0192C22.016 36.6902 24.7163 33.9912 28.0476 33.9912C28.6684 33.9907 29.2855 34.086 29.8772 34.2735V26.9845C29.1858 26.8898 28.488 26.8496 27.7903 26.8644V32.5379C27.1983 32.3503 26.5809 32.2551 25.9599 32.2555C22.6286 32.2555 19.9286 34.9545 19.9286 38.2838C19.9286 40.6377 21.2782 42.676 23.2463 43.6687Z" fill="#EE1D52"/>
<path fill-rule="evenodd" clip-rule="evenodd" d="M39.1665 23.7545C41.9689 25.7562 45.4008 26.934 49.1075 26.934V21.3217C47.0385 20.8814 45.2068 19.8006 43.8295 18.2973C41.4723 16.8271 39.7737 14.4015 39.2758 11.5625H34.0792V40.0397C34.0675 43.3595 31.3718 46.0475 28.0476 46.0475C26.0887 46.0475 24.3484 45.1144 23.2463 43.6687C21.2782 42.676 19.9286 40.6377 19.9286 38.2838C19.9286 34.9545 22.6286 32.2555 25.9599 32.2555C26.5981 32.2555 27.2133 32.3548 27.7903 32.5379V26.8644C20.6364 27.0121 14.8828 32.8545 14.8828 40.0399C14.8828 43.6268 16.3156 46.8785 18.6409 49.2541C20.7388 50.6621 23.2643 51.4831 25.9812 51.4831C33.2631 51.4831 39.1665 45.5828 39.1665 38.3045V23.7545Z" fill="white"/>
<path fill-rule="evenodd" clip-rule="evenodd" d="M49.1089 21.323V19.8055C47.2431 19.8083 45.4141 19.286 43.831 18.2984C45.2323 19.8318 47.0775 20.8892 49.1089 21.323ZM39.2773 11.5638C39.2297 11.2925 39.1932 11.0194 39.1679 10.7451V9.82812H31.9928V38.3056C31.9813 41.6251 29.2858 44.3131 25.9614 44.3131C24.9853 44.3131 24.0639 44.0817 23.2478 43.67C24.3499 45.1157 26.0902 46.0488 28.0491 46.0488C31.373 46.0488 34.0689 43.3608 34.0807 40.041V11.5638H39.2773ZM27.7921 26.8657V25.2501C27.1925 25.1681 26.5881 25.1271 25.9829 25.1275C18.7002 25.1275 12.7969 31.0277 12.7969 38.3056C12.7969 42.8685 15.117 46.8898 18.6426 49.2552C16.3174 46.8795 14.8846 43.6278 14.8846 40.041C14.8846 32.8558 20.6379 27.0134 27.7921 26.8657Z" fill="#69C9D0"/>
</svg>
