<svg width="88" height="88" viewBox="0 0 88 88" fill="none" xmlns="http://www.w3.org/2000/svg">
<g id="Frame 2" filter="url(#filter0_dd_1079_2627)">
<rect x="12" y="2" width="64" height="64" rx="12" fill="#010101"/>
<g id="Group 37380">
<path id="Vector" fill-rule="evenodd" clip-rule="evenodd" d="M53.2539 27.4904C56.0555 29.4921 59.488 30.67 63.1949 30.67V23.5401C62.4933 23.5404 61.7935 23.4672 61.1072 23.3217V28.934C57.4006 28.934 53.9686 27.7562 51.1662 25.7545V40.3043C51.1662 47.5829 45.2628 53.4829 37.9809 53.4829C35.264 53.4829 32.7385 52.6619 30.6406 51.2539C33.035 53.7007 36.374 55.2188 40.0681 55.2188C47.3505 55.2188 53.2541 49.3188 53.2541 42.0399L53.2539 27.4904ZM55.8292 20.2973C54.3974 18.734 53.4574 16.7133 53.2539 14.4795V13.5625H51.2755C51.7734 16.4015 53.472 18.8271 55.8292 20.2973ZM35.2463 45.6687C34.4464 44.6204 34.0141 43.3378 34.016 42.0192C34.016 38.6902 36.7163 35.9912 40.0476 35.9912C40.6684 35.9907 41.2855 36.086 41.8772 36.2735V28.9845C41.1858 28.8898 40.488 28.8496 39.7903 28.8644V34.5379C39.1983 34.3503 38.5809 34.2551 37.9599 34.2555C34.6286 34.2555 31.9286 36.9545 31.9286 40.2838C31.9286 42.6377 33.2782 44.676 35.2463 45.6687Z" fill="#EE1D52"/>
<path id="Vector_2" fill-rule="evenodd" clip-rule="evenodd" d="M51.1665 25.7545C53.9689 27.7562 57.4008 28.934 61.1075 28.934V23.3217C59.0385 22.8814 57.2068 21.8006 55.8295 20.2973C53.4723 18.8271 51.7737 16.4015 51.2758 13.5625H46.0792V42.0397C46.0675 45.3595 43.3718 48.0475 40.0476 48.0475C38.0887 48.0475 36.3484 47.1144 35.2463 45.6687C33.2782 44.676 31.9286 42.6377 31.9286 40.2838C31.9286 36.9545 34.6286 34.2555 37.9599 34.2555C38.5981 34.2555 39.2133 34.3548 39.7903 34.5379V28.8644C32.6364 29.0121 26.8828 34.8545 26.8828 42.0399C26.8828 45.6268 28.3156 48.8785 30.6409 51.2541C32.7388 52.6621 35.2643 53.4831 37.9812 53.4831C45.2631 53.4831 51.1665 47.5828 51.1665 40.3045V25.7545Z" fill="white"/>
<path id="Vector_3" fill-rule="evenodd" clip-rule="evenodd" d="M61.1089 23.323V21.8055C59.2431 21.8083 57.4141 21.286 55.831 20.2984C57.2323 21.8318 59.0775 22.8892 61.1089 23.323ZM51.2773 13.5638C51.2297 13.2925 51.1932 13.0194 51.1679 12.7451V11.8281H43.9928V40.3056C43.9813 43.6251 41.2858 46.3131 37.9614 46.3131C36.9853 46.3131 36.0639 46.0817 35.2478 45.67C36.3499 47.1157 38.0902 48.0488 40.0491 48.0488C43.373 48.0488 46.0689 45.3608 46.0807 42.041V13.5638H51.2773ZM39.7921 28.8657V27.2501C39.1925 27.1681 38.5881 27.1271 37.9829 27.1275C30.7002 27.1275 24.7969 33.0277 24.7969 40.3056C24.7969 44.8685 27.117 48.8898 30.6426 51.2552C28.3174 48.8795 26.8846 45.6278 26.8846 42.041C26.8846 34.8558 32.6379 29.0134 39.7921 28.8657Z" fill="#69C9D0"/>
</g>
</g>
<defs>
<filter id="filter0_dd_1079_2627" x="0" y="0" width="88" height="88" filterUnits="userSpaceOnUse" color-interpolation-filters="sRGB">
<feFlood flood-opacity="0" result="BackgroundImageFix"/>
<feColorMatrix in="SourceAlpha" type="matrix" values="0 0 0 0 0 0 0 0 0 0 0 0 0 0 0 0 0 0 127 0" result="hardAlpha"/>
<feMorphology radius="2" operator="erode" in="SourceAlpha" result="effect1_dropShadow_1079_2627"/>
<feOffset dy="4"/>
<feGaussianBlur stdDeviation="3"/>
<feColorMatrix type="matrix" values="0 0 0 0 0 0 0 0 0 0 0 0 0 0 0 0 0 0 0.05 0"/>
<feBlend mode="normal" in2="BackgroundImageFix" result="effect1_dropShadow_1079_2627"/>
<feColorMatrix in="SourceAlpha" type="matrix" values="0 0 0 0 0 0 0 0 0 0 0 0 0 0 0 0 0 0 127 0" result="hardAlpha"/>
<feMorphology radius="3" operator="erode" in="SourceAlpha" result="effect2_dropShadow_1079_2627"/>
<feOffset dy="10"/>
<feGaussianBlur stdDeviation="7.5"/>
<feColorMatrix type="matrix" values="0 0 0 0 0 0 0 0 0 0 0 0 0 0 0 0 0 0 0.1 0"/>
<feBlend mode="normal" in2="effect1_dropShadow_1079_2627" result="effect2_dropShadow_1079_2627"/>
<feBlend mode="normal" in="SourceGraphic" in2="effect2_dropShadow_1079_2627" result="shape"/>
</filter>
</defs>
</svg>
