<svg width="88" height="88" viewBox="0 0 88 88" fill="none" xmlns="http://www.w3.org/2000/svg">
<g id="Frame 4" filter="url(#filter0_dd_1079_2632)">
<rect x="12" y="2" width="64" height="64" rx="12" fill="white"/>
<g id="Layer_1-2">
<path id="path6" d="M65.7647 22.9952C65.2355 21.0228 63.6961 19.4833 61.7236 18.9541C58.1556 18 43.8554 18 43.8554 18C43.8554 18 29.5633 18 25.9952 18.9541C24.0228 19.4833 22.4833 21.0228 21.9541 22.9952C21 26.5633 21 34 21 34C21 34 21 41.4407 21.9541 45.0048C22.4833 46.9772 24.0228 48.5167 25.9952 49.0459C29.5633 50 43.8594 50 43.8594 50C43.8594 50 58.1556 50 61.7236 49.0459C63.6961 48.5167 65.2355 46.9772 65.7647 45.0048C66.7189 41.4367 66.7189 34 66.7189 34C66.7189 34 66.7189 26.5633 65.7647 22.9952Z" fill="#FF0000"/>
<path id="path8" d="M39.2812 40.8595L51.16 34.0001L39.2812 27.1406V40.8595Z" fill="white"/>
</g>
</g>
<defs>
<filter id="filter0_dd_1079_2632" x="0" y="0" width="88" height="88" filterUnits="userSpaceOnUse" color-interpolation-filters="sRGB">
<feFlood flood-opacity="0" result="BackgroundImageFix"/>
<feColorMatrix in="SourceAlpha" type="matrix" values="0 0 0 0 0 0 0 0 0 0 0 0 0 0 0 0 0 0 127 0" result="hardAlpha"/>
<feMorphology radius="2" operator="erode" in="SourceAlpha" result="effect1_dropShadow_1079_2632"/>
<feOffset dy="4"/>
<feGaussianBlur stdDeviation="3"/>
<feColorMatrix type="matrix" values="0 0 0 0 0 0 0 0 0 0 0 0 0 0 0 0 0 0 0.05 0"/>
<feBlend mode="normal" in2="BackgroundImageFix" result="effect1_dropShadow_1079_2632"/>
<feColorMatrix in="SourceAlpha" type="matrix" values="0 0 0 0 0 0 0 0 0 0 0 0 0 0 0 0 0 0 127 0" result="hardAlpha"/>
<feMorphology radius="3" operator="erode" in="SourceAlpha" result="effect2_dropShadow_1079_2632"/>
<feOffset dy="10"/>
<feGaussianBlur stdDeviation="7.5"/>
<feColorMatrix type="matrix" values="0 0 0 0 0 0 0 0 0 0 0 0 0 0 0 0 0 0 0.1 0"/>
<feBlend mode="normal" in2="effect1_dropShadow_1079_2632" result="effect2_dropShadow_1079_2632"/>
<feBlend mode="normal" in="SourceGraphic" in2="effect2_dropShadow_1079_2632" result="shape"/>
</filter>
</defs>
</svg>
