<svg width="64" height="64" viewBox="0 0 64 64" fill="none" xmlns="http://www.w3.org/2000/svg">
<rect width="64" height="64" rx="12" fill="white"/>
<path d="M53.7647 20.9952C53.2355 19.0228 51.6961 17.4833 49.7236 16.9541C46.1556 16 31.8554 16 31.8554 16C31.8554 16 17.5633 16 13.9952 16.9541C12.0228 17.4833 10.4833 19.0228 9.95415 20.9952C9 24.5633 9 32 9 32C9 32 9 39.4407 9.95415 43.0048C10.4833 44.9772 12.0228 46.5167 13.9952 47.0459C17.5633 48 31.8594 48 31.8594 48C31.8594 48 46.1556 48 49.7236 47.0459C51.6961 46.5167 53.2355 44.9772 53.7647 43.0048C54.7189 39.4367 54.7189 32 54.7189 32C54.7189 32 54.7189 24.5633 53.7647 20.9952Z" fill="#FF0000"/>
<path d="M27.2812 38.8595L39.16 32.0001L27.2812 25.1406V38.8595Z" fill="white"/>
</svg>
