<svg width="24" height="24" viewBox="0 0 24 24" fill="none" xmlns="http://www.w3.org/2000/svg">
<g clip-path="url(#clip0_497_1311)">
<path d="M12.0098 -0.0007008C18.6289 0.00211324 24.0089 5.40132 23.9995 12.0321C23.9902 18.6254 18.5942 24.0021 11.9892 23.9984C5.3711 23.9955 -0.00891982 18.5963 -0.000478361 11.9655C0.0079631 5.37224 5.40393 -0.00351484 12.0098 -0.0007008ZM8.39221 7.29329C7.85758 7.29892 7.53775 7.49871 7.37361 7.89643C7.20384 8.30916 7.28263 8.69562 7.60153 9.01642C8.44942 9.86907 9.28607 10.7339 10.1583 11.5612C10.4979 11.883 10.5532 12.0725 10.1771 12.4223C9.33015 13.2075 8.53196 14.0451 7.71689 14.8649C7.20196 15.3827 7.15507 16.0065 7.59308 16.4295C8.01797 16.8394 8.62388 16.7897 9.12474 16.2916C9.98952 15.4334 10.8571 14.5779 11.7041 13.7027C11.932 13.4673 12.0633 13.4645 12.2931 13.7018C13.141 14.577 14.0105 15.4296 14.8715 16.2916C15.061 16.4821 15.2589 16.6575 15.5403 16.6912C16.0064 16.7475 16.3806 16.5946 16.5926 16.165C16.8102 15.7241 16.7258 15.3124 16.3806 14.9644C15.5224 14.1004 14.6698 13.229 13.7919 12.3848C13.4984 12.1025 13.4458 11.9365 13.775 11.626C14.6389 10.8127 15.4615 9.95537 16.3019 9.11678C16.481 8.93762 16.6405 8.75002 16.6874 8.49019C16.7671 8.04839 16.5739 7.62253 16.1977 7.41335C15.8001 7.19292 15.3264 7.26139 14.9569 7.62722C14.0564 8.51552 13.1579 9.40757 12.2762 10.3137C12.0586 10.5369 11.9357 10.5304 11.7219 10.3109C10.8609 9.42633 9.98014 8.56242 9.10973 7.68819C8.88181 7.45932 8.63514 7.28109 8.39221 7.29329Z" fill="#CE387B"/>
<path d="M8.39253 7.2937C8.63546 7.28057 8.88213 7.45972 9.11005 7.68858C9.98046 8.56274 10.8612 9.42752 11.7222 10.3111C11.9361 10.5305 12.0589 10.5371 12.2765 10.3139C13.1591 9.40688 14.0567 8.51584 14.9572 7.62761C15.3277 7.26275 15.8004 7.19334 16.1981 7.41376C16.5742 7.62292 16.7674 8.04874 16.6877 8.49051C16.6408 8.75032 16.4813 8.93885 16.3022 9.11706C15.4618 9.95558 14.6392 10.8129 13.7754 11.626C13.4461 11.9356 13.4987 12.1025 13.7922 12.3848C14.6711 13.228 15.5227 14.0994 16.381 14.9642C16.7261 15.3121 16.8115 15.7239 16.5929 16.1647C16.381 16.5943 16.0067 16.7472 15.5406 16.6909C15.2592 16.6572 15.0613 16.4818 14.8718 16.2914C14.0108 15.4294 13.1413 14.5759 12.2934 13.7017C12.0646 13.4653 11.9323 13.4682 11.7044 13.7026C10.8565 14.5768 9.9889 15.4331 9.12506 16.2914C8.62326 16.7894 8.01829 16.8391 7.5934 16.4292C7.15539 16.0072 7.20134 15.3834 7.71721 14.8648C8.53228 14.045 9.33047 13.2074 10.1774 12.4224C10.5545 12.0734 10.4982 11.883 10.1587 11.5613C9.28639 10.7341 8.44974 9.86929 7.60185 9.0167C7.28295 8.69592 7.20416 8.30949 7.37393 7.8968C7.53807 7.49911 7.8579 7.29933 8.39253 7.2937Z" fill="#F9F5F4"/>
</g>
<defs>
<clipPath id="clip0_497_1311">
<rect width="24" height="24" fill="white"/>
</clipPath>
</defs>
</svg>
