<svg width="50" height="50" viewBox="0 0 50 50" fill="none" xmlns="http://www.w3.org/2000/svg">
<g clip-path="url(#clip0_1606_26470)">
<rect width="50" height="50" rx="9.375" fill="#0866FF"/>
<path d="M49.9999 24.9993C49.9999 11.1923 38.8069 -0.000701904 24.9999 -0.000701904C11.1929 -0.000701904 -0.00012207 11.1923 -0.00012207 24.9993C-0.00012207 36.7233 8.07188 46.5613 18.9609 49.2633V32.6393H13.8059V24.9993H18.9609V21.7073C18.9609 13.1983 22.8119 9.2543 31.1659 9.2543C32.7499 9.2543 35.4829 9.5653 36.6009 9.8753V16.8003C36.0109 16.7383 34.9859 16.7073 33.7129 16.7073C29.6139 16.7073 28.0299 18.2603 28.0299 22.2973V24.9993H36.1959L34.7929 32.6393H28.0299V49.8163C40.4069 48.3213 49.9999 37.7813 49.9999 24.9993Z" fill="#0866FF"/>
<path d="M34.7919 32.6392L36.1949 24.9992H28.0289V22.2972C28.0289 18.2602 29.6129 16.7072 33.7119 16.7072C34.9849 16.7072 36.0099 16.7382 36.5999 16.8002V9.87524C35.4819 9.56424 32.7489 9.25424 31.1649 9.25424C22.8109 9.25424 18.9599 13.1982 18.9599 21.7072V24.9992H13.8049V32.6392H18.9599V49.2632C20.8939 49.7432 22.9169 49.9992 24.9989 49.9992C26.0239 49.9992 27.0349 49.9362 28.0279 49.8162V32.6392H34.7919Z" fill="white"/>
</g>
<defs>
<clipPath id="clip0_1606_26470">
<rect width="50" height="50" rx="9.375" fill="white"/>
</clipPath>
</defs>
</svg>
