<svg width="16" height="16" viewBox="0 0 16 16" fill="none" xmlns="http://www.w3.org/2000/svg">
<g clip-path="url(#clip0_634_155795)">
<g clip-path="url(#clip1_634_155795)">
<path d="M7.50653 16C7.06866 15.2298 6.61794 14.5076 6.16793 13.7855C5.15372 12.1575 4.12345 10.5393 3.22023 8.84465C2.88977 8.22467 2.59821 7.58676 2.32521 6.9381C1.9009 5.92871 1.90875 4.91 2.25027 3.89738C2.97149 1.76099 4.45177 0.455412 6.66112 0.076039C9.61167 -0.430628 12.4487 1.6527 12.9387 4.59839C13.0868 5.48981 12.9626 6.32529 12.6254 7.15002C12.089 8.4624 11.3903 9.68766 10.6544 10.8921C9.72872 12.4067 8.78268 13.9088 7.84698 15.4173C7.73421 15.5984 7.63143 15.7856 7.50653 16ZM9.96961 5.32451C9.96818 3.95977 8.86975 2.85787 7.50974 2.85787C6.14045 2.85787 5.04559 3.96013 5.04595 5.33814C5.0463 6.70144 6.14652 7.80514 7.50546 7.80549C8.87332 7.80621 9.97068 6.70108 9.96961 5.32451Z" fill="#F3F4F6"/>
</g>
</g>
<defs>
<clipPath id="clip0_634_155795">
<rect width="16" height="16" fill="white"/>
</clipPath>
<clipPath id="clip1_634_155795">
<rect width="11" height="16" fill="white" transform="translate(2)"/>
</clipPath>
</defs>
</svg>
