<svg width="50" height="50" viewBox="0 0 50 50" fill="none" xmlns="http://www.w3.org/2000/svg">
<rect width="50" height="50" rx="12" fill="#FFFC00"/>
<path d="M41.8568 33.5701C41.7095 33.0824 41.0043 32.7386 41.0043 32.7386C40.9376 32.7035 40.878 32.6719 40.8288 32.6473C39.6535 32.079 38.6115 31.3948 37.7344 30.6195C37.0292 29.995 36.4257 29.3073 35.9416 28.5775C35.3486 27.6864 35.0715 26.9426 34.9522 26.5391C34.8855 26.276 34.8961 26.1708 34.9522 26.0339C34.9978 25.9181 35.1346 25.8094 35.1978 25.7568C35.5942 25.4761 36.2328 25.0621 36.6257 24.8095C36.966 24.5884 37.2572 24.399 37.4292 24.2797C37.98 23.8938 38.3589 23.5008 38.5799 23.0763C38.8676 22.529 38.9027 21.9255 38.6782 21.3326C38.3764 20.5327 37.6291 20.0555 36.6783 20.0555C36.4678 20.0555 36.2503 20.0801 36.0328 20.1257C35.489 20.245 34.9732 20.438 34.5417 20.6064C34.5101 20.6204 34.475 20.5958 34.4786 20.5607C34.5242 19.4907 34.5768 18.0522 34.4575 16.6874C34.3522 15.4525 34.0961 14.4104 33.6821 13.5018C33.2646 12.5896 32.7208 11.9159 32.2963 11.4283C31.8928 10.9651 31.1806 10.281 30.107 9.66702C28.5984 8.80394 26.8793 8.36539 24.9987 8.36539C23.1217 8.36539 21.4061 8.80394 19.8939 9.66702C18.7572 10.3161 18.031 11.0493 17.7012 11.4283C17.2766 11.9159 16.7328 12.5896 16.3153 13.5018C15.8978 14.4104 15.6452 15.4489 15.54 16.6874C15.4207 18.0592 15.4698 19.3819 15.5189 20.5607C15.5189 20.5958 15.4873 20.6204 15.4522 20.6064C15.0207 20.438 14.505 20.245 13.9612 20.1257C13.7471 20.0801 13.5296 20.0555 13.3156 20.0555C12.3683 20.0555 11.621 20.5327 11.3158 21.3326C11.0912 21.9255 11.1263 22.529 11.414 23.0763C11.6386 23.5008 12.014 23.8938 12.5648 24.2797C12.7332 24.399 13.0279 24.5884 13.3682 24.8095C13.7506 25.0586 14.3716 25.462 14.7716 25.7392C14.8207 25.7743 14.9891 25.9006 15.0418 26.0339C15.0979 26.1743 15.1084 26.2795 15.0347 26.5602C14.9119 26.9672 14.6348 27.7039 14.0524 28.5775C13.5682 29.3108 12.9648 29.995 12.2596 30.6195C11.3824 31.3948 10.3404 32.079 9.16511 32.6473C9.10897 32.6754 9.04231 32.707 8.97214 32.7491C8.97214 32.7491 8.27045 33.107 8.13713 33.5701C7.94066 34.2542 8.46342 34.8963 8.99319 35.2401C9.86329 35.8014 10.9228 36.1032 11.5368 36.2681C11.7087 36.3137 11.8631 36.3558 12.0034 36.3979C12.0912 36.4259 12.3122 36.5101 12.4069 36.6329C12.5262 36.7873 12.5402 36.9768 12.5823 37.1908C12.649 37.5522 12.7999 37.9977 13.2454 38.3065C13.7366 38.6433 14.3576 38.6678 15.147 38.6994C15.9715 38.731 16.996 38.7696 18.1713 39.159C18.7151 39.338 19.2098 39.6432 19.7782 39.994C20.971 40.7273 22.4551 41.6395 24.9882 41.6395C27.5248 41.6395 29.0194 40.7238 30.2193 39.987C30.7877 39.6397 31.2753 39.338 31.8086 39.1625C32.984 38.7731 34.0084 38.7345 34.8329 38.7029C35.6223 38.6714 36.2433 38.6503 36.7345 38.31C37.2116 37.9802 37.3485 37.489 37.4116 37.1206C37.4467 36.9382 37.4677 36.7733 37.573 36.64C37.6642 36.5242 37.8677 36.4435 37.9624 36.4119C38.1063 36.3663 38.2677 36.3242 38.4466 36.2751C39.0606 36.1102 39.8324 35.9172 40.7692 35.3874C41.8989 34.7454 41.9761 33.9595 41.8568 33.5701Z" fill="white"/>
<path d="M42.8325 33.192C42.5834 32.5114 42.1062 32.15 41.5659 31.8483C41.4642 31.7886 41.3695 31.7395 41.2923 31.7044C41.1309 31.6202 40.966 31.5395 40.8011 31.4553C39.1135 30.5607 37.7944 29.4309 36.8822 28.0942C36.5734 27.6416 36.3594 27.2347 36.2085 26.9014C36.1314 26.6768 36.1349 26.5505 36.191 26.4347C36.2331 26.347 36.3454 26.2558 36.4085 26.2102C36.6997 26.0172 36.9979 25.8243 37.2014 25.6944C37.5628 25.4594 37.8505 25.2734 38.0329 25.1471C38.7276 24.663 39.2118 24.1472 39.5135 23.5718C39.9415 22.7614 39.9942 21.8352 39.6644 20.9651C39.2083 19.7582 38.0645 19.0073 36.6822 19.0073C36.3945 19.0073 36.1033 19.0389 35.8156 19.1021C35.7384 19.1196 35.6647 19.1372 35.5911 19.1547C35.6051 18.3337 35.584 17.4566 35.5104 16.6006C35.2507 13.5833 34.1947 12.001 33.093 10.7414C32.6334 10.2152 31.8335 9.44683 30.6336 8.75917C28.9601 7.79786 27.0655 7.31369 24.9991 7.31369C22.9396 7.31369 21.045 7.79786 19.3715 8.75566C18.1646 9.44332 17.3647 10.2152 16.9086 10.7379C15.8069 11.9975 14.7509 13.5798 14.4913 16.597C14.4176 17.4531 14.4 18.3302 14.4106 19.1512C14.3369 19.1336 14.2597 19.1161 14.186 19.0986C13.8983 19.0354 13.6036 19.0038 13.3194 19.0038C11.9371 19.0038 10.7934 19.7546 10.3373 20.9616C10.0075 21.8316 10.0601 22.7579 10.4881 23.5683C10.7898 24.1437 11.2775 24.6595 11.9687 25.1436C12.1546 25.2734 12.4388 25.4594 12.8002 25.6909C12.9967 25.8172 13.2808 26.0032 13.5615 26.1891C13.6036 26.2172 13.7545 26.3295 13.8071 26.4347C13.8668 26.554 13.8668 26.6838 13.779 26.9224C13.6317 27.2487 13.4177 27.6487 13.1159 28.0907C12.2213 29.3994 10.9407 30.508 9.30928 31.3922C8.44269 31.8518 7.54453 32.157 7.16562 33.1885C6.87792 33.9674 7.06738 34.855 7.79363 35.6023C8.0322 35.8584 8.33393 36.0865 8.71284 36.297C9.60399 36.7882 10.3618 37.0302 10.9582 37.1951C11.0635 37.2267 11.3056 37.3039 11.4108 37.3986C11.6775 37.6302 11.6389 37.981 11.9932 38.4933C12.2073 38.8125 12.4528 39.0301 12.6563 39.1704C13.3966 39.6826 14.2316 39.7142 15.1158 39.7493C15.9122 39.7809 16.8174 39.8159 17.8488 40.1563C18.2769 40.2966 18.7224 40.5703 19.2347 40.886C20.4696 41.6474 22.1642 42.6859 24.9955 42.6859C27.8304 42.6859 29.532 41.6403 30.7775 40.879C31.2897 40.5668 31.7318 40.2931 32.1458 40.1563C33.1772 39.8159 34.0824 39.7809 34.8788 39.7493C35.763 39.7142 36.5945 39.6826 37.3383 39.1704C37.5698 39.009 37.8645 38.7459 38.0961 38.3459C38.3487 37.9144 38.3452 37.6091 38.5838 37.4021C38.682 37.3179 38.896 37.2443 39.0118 37.2092C39.6117 37.0443 40.3801 36.8022 41.2888 36.3005C41.6922 36.0794 42.0045 35.8374 42.2536 35.5602C42.2571 35.5567 42.2606 35.5532 42.2641 35.5497C42.9413 34.8129 43.1132 33.9533 42.8325 33.192ZM40.3169 34.5428C38.7802 35.3918 37.7593 35.3006 36.9664 35.8093C36.2927 36.2443 36.6892 37.1811 36.2015 37.5179C35.5981 37.9354 33.8193 37.4898 31.5213 38.2477C29.6267 38.8757 28.4163 40.6755 25.0026 40.6755C21.5818 40.6755 20.4065 38.8827 18.4839 38.2477C16.1858 37.4898 14.4035 37.9354 13.8036 37.5179C13.3159 37.1811 13.7124 36.2443 13.0388 35.8093C12.2458 35.2971 11.2249 35.3883 9.68819 34.5428C8.70933 34.0024 9.26367 33.6691 9.58995 33.5113C15.1544 30.8203 16.0385 26.6593 16.0806 26.347C16.1297 25.9751 16.1823 25.6804 15.7718 25.298C15.3754 24.9296 13.6106 23.8385 13.123 23.4982C12.3125 22.9333 11.9582 22.3684 12.2213 21.6738C12.4037 21.1931 12.8528 21.0142 13.3265 21.0142C13.4738 21.0142 13.6247 21.0317 13.7685 21.0633C14.6562 21.2563 15.5192 21.7018 16.0174 21.8211C16.0876 21.8387 16.1472 21.8457 16.1999 21.8457C16.4665 21.8457 16.5577 21.7124 16.5402 21.4071C16.4841 20.4353 16.3437 18.5407 16.4981 16.769C16.7086 14.3341 17.4945 13.1272 18.4277 12.0571C18.8768 11.5449 20.9819 9.32052 25.0061 9.32052C29.0408 9.32052 31.1353 11.5449 31.5844 12.0571C32.5177 13.1237 33.3035 14.3306 33.5141 16.769C33.6684 18.5407 33.5351 20.4353 33.472 21.4071C33.4509 21.7264 33.5491 21.8457 33.8123 21.8457C33.8649 21.8457 33.9281 21.8387 33.9947 21.8211C34.4929 21.7018 35.356 21.2563 36.2436 21.0633C36.3875 21.0317 36.5383 21.0142 36.6857 21.0142C37.1593 21.0142 37.6084 21.1966 37.7909 21.6738C38.054 22.3684 37.6961 22.9333 36.8892 23.4982C36.4015 23.8385 34.6368 24.9296 34.2403 25.298C33.8298 25.6769 33.8824 25.9716 33.9316 26.347C33.9702 26.6593 34.8578 30.8203 40.4222 33.5113C40.7379 33.6691 41.2958 34.0024 40.3169 34.5428Z" fill="black"/>
</svg>
