<svg width="470" height="1000" viewBox="0 0 470 1000" fill="none" xmlns="http://www.w3.org/2000/svg">
<g clip-path="url(#clip0_1450_17860)">
<rect width="470" height="1000" fill="#910A67"/>
<rect width="470" height="1000" fill="url(#paint0_linear_1450_17860)"/>
<path opacity="0.05" fill-rule="evenodd" clip-rule="evenodd" d="M492.059 923.318L492.073 923.341C512.638 907.946 532 890.751 549.968 871.967C532.002 890.746 512.636 907.932 492.059 923.318ZM235.534 511.187L492.059 923.318C421.632 975.98 337.013 1007.56 245.779 1009.77C271.178 1009.15 296.084 1006.24 320.309 1001.25L235.534 511.187ZM235.534 511.187L683.093 604.012C687.618 577.69 690.269 550.633 690.861 523.043C688.733 622.698 659.91 715.123 611.919 792.075L235.534 511.187ZM567.68 852.409C583.801 833.606 598.609 813.44 611.939 792.091L611.919 792.075C598.596 813.437 583.796 833.608 567.68 852.409ZM690.988 511.187C690.988 479.436 688.264 448.443 683.093 418.361L235.534 511.187L611.939 230.283C579.803 178.764 539.078 134.222 492.073 99.0327L235.534 511.187L-21.0047 99.0327C-68.0554 134.222 -108.734 178.764 -140.871 230.283L235.534 511.187L-140.871 792.091C-108.734 843.559 -68.0554 888.152 -21.0047 923.341L235.534 511.187L150.76 1001.25C178.233 1006.91 206.584 1009.9 235.534 1009.9C235.527 1009.9 235.519 1009.9 235.511 1009.9C-14.0813 1009.9 -216.784 790.073 -219.929 517.592C-219.587 547.07 -216.893 575.959 -212.07 604.012L235.488 511.187L-212.07 418.361C-217.231 448.381 -219.954 479.358 -219.966 510.99C-219.881 235.625 -15.9896 12.4258 235.511 12.4258C487.064 12.4258 690.988 235.717 690.988 511.162C690.988 511.17 690.988 511.178 690.988 511.187ZM-219.966 510.99C-219.966 511.056 -219.966 511.121 -219.966 511.187C-219.966 513.325 -219.953 515.46 -219.929 517.592C-219.953 515.452 -219.966 513.308 -219.966 511.162C-219.966 511.104 -219.966 511.047 -219.966 510.99ZM320.309 21.0713C292.836 15.4087 264.485 12.4258 235.534 12.4258C206.538 12.4258 178.233 15.4593 150.76 21.0713L235.534 511.136L320.309 21.0713Z" fill="url(#paint1_radial_1450_17860)"/>
</g>
<defs>
<linearGradient id="paint0_linear_1450_17860" x1="235.598" y1="-56.9249" x2="233.037" y2="999.994" gradientUnits="userSpaceOnUse">
<stop stop-color="#6CE2FE"/>
<stop offset="0.545844" stop-color="#C887F1"/>
<stop offset="1" stop-color="#5B99FF"/>
</linearGradient>
<radialGradient id="paint1_radial_1450_17860" cx="0" cy="0" r="1" gradientUnits="userSpaceOnUse" gradientTransform="translate(235.524 511.179) rotate(180) scale(460.788 498.739)">
<stop offset="0.5905" stop-color="white"/>
<stop offset="0.6874" stop-color="white"/>
<stop offset="0.8115" stop-color="white"/>
<stop offset="0.95" stop-color="white"/>
<stop offset="1" stop-color="white"/>
</radialGradient>
<clipPath id="clip0_1450_17860">
<rect width="470" height="1000" fill="white"/>
</clipPath>
</defs>
</svg>
