<svg width="273" height="162" viewBox="0 0 273 162" fill="none" xmlns="http://www.w3.org/2000/svg">
<g clip-path="url(#clip0_2276_3435)">
<path d="M250.074 146.921C250.642 143.024 253.753 140.133 257.48 139.663L257.934 136.549C254.496 135.035 252.339 131.379 252.907 127.48C253.475 123.583 256.586 120.692 260.313 120.222L260.767 117.108C257.328 115.597 255.172 111.938 255.74 108.039C256.308 104.142 259.419 101.251 263.146 100.781L263.6 97.6672C260.161 96.1533 258.005 92.4973 258.573 88.5979C259.141 84.7012 262.252 81.81 265.979 81.3403L266.433 78.2263C262.994 76.7124 260.838 73.0564 261.406 69.157C261.974 65.2603 265.084 62.3691 268.812 61.8993L269.266 58.7854C265.827 57.2715 263.671 53.6155 264.239 49.7161C264.807 45.8166 267.917 42.9282 271.645 42.4584L272.432 37.0585L18.1177 0L17.3308 5.39994C20.7693 6.91387 22.9256 10.5726 22.3578 14.4693C21.79 18.366 18.6792 21.2572 14.9516 21.7269L14.4979 24.8408C17.9364 26.3548 20.0931 30.0107 19.5249 33.9102C18.9571 37.8069 15.8463 40.6981 12.1187 41.1678L11.665 44.2817C15.1039 45.7929 17.2602 49.4516 16.692 53.3511C16.1241 57.2478 13.0133 60.139 9.28581 60.6087L8.83205 63.7226C12.2705 65.2366 14.4273 68.8925 13.859 72.792C13.2912 76.6887 10.1804 79.5799 6.45289 80.0496L5.99913 83.1635C9.43761 84.6775 11.5943 88.3334 11.0261 92.2329C10.4583 96.1296 7.34751 99.0208 3.61997 99.4905L3.16621 102.604C6.60469 104.118 8.76143 107.774 8.1932 111.674C7.62497 115.573 4.51459 118.462 0.787056 118.931L0.000180607 124.331L254.314 161.39L255.101 155.99C251.663 154.476 249.506 150.817 250.074 146.921Z" fill="#F8F8F8"/>
<path d="M219.187 144.477L38.4936 118.147C39.6593 110.147 34.1196 102.714 26.1172 101.548L36.6472 29.2862C44.6468 30.4519 52.0796 24.9123 53.2457 16.9099L233.939 43.2403C232.773 51.2399 238.313 58.6728 246.315 59.8389L235.785 132.101C227.785 130.938 220.352 136.478 219.187 144.477Z" fill="white"/>
<path d="M224.98 152.247L30.7236 123.94L31.7119 117.159C32.3312 112.909 29.3789 108.949 25.129 108.33L18.3473 107.342L30.8537 21.5163L37.6355 22.5046C41.8853 23.1238 45.8448 20.1716 46.464 15.9217L47.4523 9.14L241.709 37.4469L240.72 44.2286C240.101 48.4785 243.053 52.4379 247.303 53.0572L254.085 54.0455L241.579 139.871L234.797 138.883C230.547 138.263 226.588 141.216 225.968 145.465L224.98 152.247ZM33.3136 122.009L223.049 149.657L223.708 145.136C224.509 139.64 229.63 135.821 235.126 136.622L239.647 137.281L251.495 55.9766L246.974 55.3178C241.478 54.5169 237.659 49.3952 238.46 43.8992L239.119 39.3781L49.3834 11.73L48.7246 16.2511C47.9237 21.7471 42.8021 25.566 37.306 24.7651L32.7849 24.1063L20.9373 105.411L25.4584 106.069C30.9544 106.87 34.7733 111.992 33.9724 117.488L33.3136 122.009Z" fill="#FFB6FF"/>
<path d="M51.1794 54.3193L47.7886 53.8252L47.4592 56.0858L50.85 56.5799L51.1794 54.3193Z" fill="#C5168E"/>
<path d="M217.951 80.9298L210.989 79.9152L211.318 77.6547L218.281 78.6693L217.951 80.9298ZM204.026 78.9007L197.064 77.8861L197.393 75.6255L204.356 76.6401L204.026 78.9007ZM190.101 76.8715L183.139 75.8569L183.468 73.5964L190.431 74.6109L190.101 76.8715ZM176.176 74.8423L169.214 73.8278L169.543 71.5672L176.506 72.5818L176.176 74.8423ZM162.251 72.8132L155.288 71.7986L155.618 69.538L162.58 70.5526L162.251 72.8132ZM148.326 70.784L141.363 69.7694L141.693 67.5089L148.655 68.5235L148.326 70.784ZM134.401 68.7549L127.438 67.7403L127.768 65.4797L134.73 66.4943L134.401 68.7549ZM120.476 66.7257L113.513 65.7111L113.843 63.4506L120.805 64.4651L120.476 66.7257ZM106.551 64.6966L99.588 63.682L99.9174 61.4214L106.88 62.436L106.551 64.6966ZM92.6255 62.6674L85.6629 61.6528L85.9923 59.3922L92.9549 60.4068L92.6255 62.6674ZM78.7003 60.6382L71.7378 59.6237L72.0672 57.3631L79.0298 58.3777L78.7003 60.6382ZM64.7752 58.6091L57.8127 57.5945L58.1421 55.3339L65.1046 56.3485L64.7752 58.6091Z" fill="#C5168E"/>
<path d="M228.635 80.178L225.244 79.6838L224.914 81.9444L228.305 82.4385L228.635 80.178Z" fill="#C5168E"/>
<path d="M94.729 45.3999C94.4548 46.2517 92.0789 52.3579 84.4494 51.2462C77.4615 50.2279 75.0168 44.5475 75.8782 38.6361C76.6762 33.1599 80.325 27.5075 88.0137 28.6279C94.1003 29.5148 96.106 33.9106 95.9639 37.3412L91.8299 36.7388C91.7805 36.0477 91.7468 35.2694 91.1719 34.3228C90.4291 33.0833 89.1139 32.3261 87.6276 32.1095C84.3074 31.6257 80.8314 33.8548 80.0548 39.1841C79.3288 44.1658 81.6332 47.3239 84.8969 47.7994C86.2645 47.9987 87.7398 47.677 88.9692 46.7855C90.0941 45.9971 90.3751 45.2965 90.7527 44.1308L94.8867 44.7332C94.821 44.9661 94.7914 45.1695 94.729 45.3999Z" fill="#C5168E"/>
<path d="M106.931 54.5222C100.641 53.6056 96.9257 48.4846 97.923 41.6407C98.9244 34.7686 103.971 30.9531 110.232 31.8656C116.463 32.7735 120.242 37.8749 119.24 44.747C118.243 51.5909 113.221 55.4387 106.931 54.5222ZM109.715 35.4175C106.075 34.8872 102.822 37.2094 102.088 42.2477C101.358 47.2576 103.745 50.4595 107.444 50.9985C111.287 51.5585 114.371 48.9749 115.075 44.1401C115.78 39.3053 113.529 35.9734 109.715 35.4175Z" fill="#C5168E"/>
<path d="M136.587 56.5236C134.859 57.9685 131.916 58.163 129.791 57.8533C125.219 57.1871 121.429 54.2252 122.409 47.5L124.285 34.6261L128.187 35.1947L126.243 48.5321C125.764 51.8212 127.195 53.8448 130.396 54.3114C133.222 54.7231 135.448 53.5296 135.97 49.9494L137.913 36.612L141.815 37.1807L139.94 50.0518C139.381 53.8689 137.91 55.4091 136.587 56.5236Z" fill="#C5168E"/>
<path d="M146.093 37.804L155.879 39.2299C160.013 39.8324 162.776 42.9129 162.165 47.1063C161.621 50.8334 158.337 53.5666 153.884 52.9177L148.032 52.0649L146.929 59.6378L142.998 59.0651L146.096 37.8044L146.093 37.804ZM148.516 48.7447L153.786 49.5127C155.823 49.8095 157.637 49.0033 158.02 46.3811C158.393 43.8181 156.882 42.7639 154.813 42.4625L149.543 41.6946L148.516 48.7447Z" fill="#C5168E"/>
<path d="M172.744 64.1124C166.454 63.1959 162.739 58.0749 163.736 51.231C164.738 44.3589 169.784 40.5434 176.046 41.4559C182.276 42.3638 186.055 47.4652 185.054 54.3373C184.056 61.1812 179.034 65.029 172.744 64.1124ZM175.528 45.0078C171.889 44.4774 168.636 46.7997 167.902 51.8379C167.172 56.8479 169.559 60.0498 173.258 60.5888C177.101 61.1488 180.184 58.5652 180.889 53.7304C181.593 48.8956 179.343 45.5637 175.528 45.0078Z" fill="#C5168E"/>
<path d="M200.366 67.4246L193.921 52.6572L192.832 48.9001L192.543 53.7348L190.753 66.0238L186.997 65.4766L190.095 44.2159L194.26 44.8229L200.702 59.5899L201.791 63.347L202.08 58.5123L203.871 46.2233L207.626 46.7705L204.528 68.0283L200.366 67.4218L200.366 67.4246Z" fill="#C5168E"/>
<path d="M68.2798 112.604L72.4003 84.3266L61.38 82.7207L62.1504 77.4338L65.3774 77.9041C68.3274 78.3339 73.2634 77.2352 75.2578 72.1238L81.268 72.9996L75.3469 113.633L68.2798 112.604Z" fill="#C5168E"/>
<path d="M97.0534 117.593C84.1399 115.711 85.1197 100.392 85.8823 95.159C86.8557 88.479 90.2236 73.5658 103.194 75.4558C108.317 76.2023 111.345 79.2004 113.012 82.9697C115.147 87.8286 115.027 93.3257 114.265 98.5561C113.521 103.68 110.357 119.531 97.0534 117.593ZM102.207 81.4528C98.4772 80.9093 95.4096 83.247 93.6167 95.5502C91.6867 108.399 94.3123 111.055 97.932 111.583C101.995 112.175 104.843 109.407 106.587 97.4401C108.458 84.5799 105.881 81.9881 102.207 81.4528Z" fill="#C5168E"/>
<path d="M129.544 105.844C129.127 108.71 127.4 110.818 124.478 110.393C121.89 110.015 120.467 107.875 120.953 104.538C121.436 101.226 123.39 99.5223 126.006 99.9036C128.344 100.241 130.091 102.089 129.544 105.844ZM123.542 104.915C123.428 105.695 123.104 107.918 124.802 108.166C126.501 108.413 126.825 106.187 126.938 105.41C127.121 104.158 127.213 102.353 125.682 102.13C124.402 101.941 123.797 103.16 123.542 104.915ZM125.692 120.97L122.966 120.572L137.056 101.88L139.755 102.273L125.692 120.97ZM141.778 118.428C141.365 121.265 139.634 123.402 136.709 122.976C134.121 122.599 132.705 120.433 133.192 117.093C133.674 113.782 135.628 112.078 138.242 112.459C140.582 112.797 142.33 114.642 141.778 118.428ZM135.78 117.468C135.667 118.248 135.342 120.474 137.041 120.722C138.739 120.969 139.063 118.742 139.177 117.963C139.457 116.044 139.119 114.858 137.921 114.683C137.03 114.553 136.137 115.018 135.78 117.468Z" fill="#C5168E"/>
<path d="M156.712 126.174C150.701 125.298 147.178 120.407 148.131 113.868C149.087 107.301 153.882 103.651 159.866 104.523C165.848 105.395 169.43 110.265 168.473 116.832C167.52 123.371 162.722 127.05 156.712 126.174ZM159.372 107.92C155.893 107.413 152.785 109.632 152.084 114.444C151.386 119.231 153.696 122.294 157.202 122.805C160.876 123.341 163.849 120.877 164.523 116.257C165.196 111.637 163.017 108.451 159.372 107.92Z" fill="#C5168E"/>
<path d="M177.092 110.955L176.326 116.214L185.981 117.621L185.519 120.794L175.864 119.387L174.595 128.096L170.839 127.548L173.799 107.234L188.213 109.335L187.751 112.508L177.092 110.955Z" fill="#C5168E"/>
<path d="M195.182 113.591L194.416 118.85L204.071 120.257L203.609 123.43L193.953 122.023L192.684 130.732L188.929 130.185L191.889 109.87L206.303 111.971L205.841 115.144L195.182 113.591Z" fill="#C5168E"/>
</g>
<defs>
<clipPath id="clip0_2276_3435">
<rect width="257" height="125.644" fill="white" transform="translate(18.1177) rotate(8.29076)"/>
</clipPath>
</defs>
</svg>
