<svg width="50" height="50" viewBox="0 0 50 50" fill="none" xmlns="http://www.w3.org/2000/svg">
<rect width="50" height="50" rx="12" fill="#010101"/>
<path fill-rule="evenodd" clip-rule="evenodd" d="M32.234 19.9166C34.4228 21.4804 37.1044 22.4006 40.0004 22.4006V16.8304C39.4523 16.8306 38.9056 16.7735 38.3694 16.6598V21.0444C35.4736 21.0444 32.7924 20.1242 30.603 18.5604V29.9274C30.603 35.6138 25.991 40.2232 20.302 40.2232C18.1794 40.2232 16.2064 39.5818 14.5674 38.4818C16.438 40.3934 19.0466 41.5794 21.9326 41.5794C27.622 41.5794 32.2342 36.97 32.2342 31.2834L32.234 19.9166ZM34.246 14.297C33.1274 13.0756 32.393 11.497 32.234 9.75183V9.03543H30.6884C31.0774 11.2534 32.4044 13.1484 34.246 14.297ZM18.1656 34.1184C17.5407 33.2994 17.2029 32.2974 17.2044 31.2672C17.2044 28.6664 19.314 26.5578 21.9166 26.5578C22.4016 26.5575 22.8837 26.6319 23.346 26.7784V21.0838C22.8058 21.0099 22.2607 20.9785 21.7156 20.99V25.4224C21.2531 25.2759 20.7708 25.2015 20.2856 25.2018C17.683 25.2018 15.5736 27.3104 15.5736 29.9114C15.5736 31.7504 16.628 33.3428 18.1656 34.1184Z" fill="#EE1D52"/>
<path fill-rule="evenodd" clip-rule="evenodd" d="M30.6016 18.5604C32.791 20.1242 35.4722 21.0444 38.368 21.0444V16.6598C36.7516 16.3158 35.3206 15.4714 34.2446 14.297C32.403 13.1484 31.076 11.2534 30.687 9.03543H26.6272V31.2832C26.618 33.8768 24.512 35.9768 21.915 35.9768C20.3846 35.9768 19.025 35.2478 18.164 34.1184C16.6264 33.3428 15.572 31.7504 15.572 29.9114C15.572 27.3104 17.6814 25.2018 20.284 25.2018C20.7826 25.2018 21.2632 25.2794 21.714 25.4224V20.99C16.125 21.1054 11.63 25.6698 11.63 31.2834C11.63 34.0856 12.7494 36.626 14.566 38.482C16.205 39.582 18.178 40.2234 20.3006 40.2234C25.9896 40.2234 30.6016 35.6138 30.6016 29.9276V18.5604Z" fill="white"/>
<path fill-rule="evenodd" clip-rule="evenodd" d="M38.3688 16.6607V15.4751C36.9111 15.4773 35.4822 15.0693 34.2454 14.2977C35.3402 15.4956 36.7817 16.3218 38.3688 16.6607ZM30.6878 9.03627C30.6506 8.82432 30.6221 8.61094 30.6024 8.39667V7.68027H24.9968V29.9283C24.9878 32.5217 22.882 34.6217 20.2848 34.6217C19.5222 34.6217 18.8024 34.4409 18.1648 34.1193C19.0258 35.2487 20.3854 35.9777 21.9158 35.9777C24.5126 35.9777 26.6188 33.8777 26.628 31.2841V9.03627H30.6878ZM21.715 20.9909V19.7287C21.2466 19.6646 20.7744 19.6326 20.3016 19.6329C14.612 19.6329 10 24.2425 10 29.9283C10 33.4931 11.8126 36.6347 14.567 38.4827C12.7504 36.6267 11.631 34.0863 11.631 31.2841C11.631 25.6707 16.1258 21.1063 21.715 20.9909Z" fill="#69C9D0"/>
</svg>
