<svg width="427" height="427" viewBox="0 0 427 427" fill="none" xmlns="http://www.w3.org/2000/svg">
<path d="M346.722 290.807C339.976 302.429 331.718 313.172 322.178 322.639C302.967 341.71 279.014 355.474 252.887 362.443C226.823 369.394 199.197 369.321 172.978 362.241C146.781 355.122 122.902 341.261 103.888 322.135C84.8171 302.924 71.0528 278.971 64.0843 252.844C57.1324 226.78 57.2063 199.154 64.2856 172.935C67.8451 159.836 73.062 147.274 79.808 135.653C86.5539 124.032 94.8122 113.289 104.352 103.822C123.54 84.7908 147.516 70.9867 173.643 64.0182C199.707 57.0663 227.333 57.1402 253.552 64.2195C279.709 71.3155 303.611 85.1372 322.665 104.286C341.696 123.474 355.5 147.45 362.469 173.577C369.398 199.681 369.347 227.267 362.228 253.463C358.725 266.648 353.491 279.147 346.722 290.807Z" fill="url(#paint0_linear_744_2872)"/>
<path d="M348.195 291.662C341.356 303.443 333.012 314.242 323.34 323.846C303.951 343.132 279.723 357.003 253.282 364.055C226.926 371.051 199.009 371.02 172.527 363.842C146.046 356.664 121.888 342.641 102.681 323.297C83.395 303.908 69.524 279.68 62.4489 253.278C55.4136 226.9 55.5067 198.966 62.6617 172.524C66.2508 159.283 71.537 146.602 78.3522 134.862C85.1675 123.121 93.5349 112.282 103.207 102.678C122.573 83.4316 146.784 69.4978 173.226 62.4458C199.541 55.4271 227.475 55.5202 253.98 62.6585C280.461 69.8367 304.619 83.8599 323.849 103.164C343.112 122.593 357.029 146.741 364.081 173.183C371.077 199.538 371.047 227.455 363.869 253.937C360.319 267.201 355.033 279.882 348.195 291.662Z" fill="url(#paint1_linear_744_2872)"/>
<path d="M346.722 290.807C339.976 302.429 331.718 313.172 322.178 322.639C302.967 341.71 279.014 355.474 252.887 362.443C226.823 369.394 199.197 369.321 172.978 362.241C146.781 355.122 122.902 341.261 103.888 322.135C84.8171 302.924 71.0528 278.971 64.0843 252.844C57.1324 226.78 57.2063 199.154 64.2856 172.935C67.8451 159.836 73.062 147.274 79.808 135.653C86.5539 124.032 94.8122 113.289 104.352 103.822C123.54 84.7908 147.516 70.9867 173.643 64.0182C199.707 57.0663 227.333 57.1402 253.552 64.2195C279.709 71.3155 303.611 85.1372 322.665 104.286C341.696 123.474 355.5 147.45 362.469 173.577C369.398 199.681 369.347 227.267 362.228 253.463C358.725 266.648 353.491 279.147 346.722 290.807Z" fill="url(#paint2_linear_744_2872)"/>
<path d="M347.16 291.062C340.391 302.722 332.109 313.505 322.467 322.966C303.272 342.1 279.194 355.898 253.004 362.883C226.837 369.828 199.149 369.771 172.849 362.646C146.59 355.543 122.631 341.636 103.56 322.424C84.4101 303.167 70.6291 279.151 63.6439 252.961C56.6985 226.794 56.7556 199.106 63.8811 172.806C67.4009 159.685 72.6807 147.106 79.4728 135.406C86.2419 123.745 94.563 112.985 104.126 103.478C123.383 84.3275 147.399 70.5464 173.629 63.5843C199.756 56.6158 227.484 56.696 253.744 63.7984C280.003 70.9008 304.001 84.8316 323.072 104.043C342.183 123.277 356.004 147.316 362.989 173.506C369.934 199.673 369.877 227.362 362.752 253.661C359.209 266.822 353.929 279.401 347.16 291.062ZM80.2457 135.908C73.4998 147.529 68.2893 159.988 64.7926 173.069C57.7197 199.186 57.6523 226.71 64.5874 252.711C71.5392 278.775 85.2471 302.642 104.238 321.807C123.173 340.886 147.012 354.724 173.152 361.757C199.229 368.807 226.792 368.898 252.793 361.963C278.818 354.988 302.684 341.28 321.85 322.289C331.389 312.821 339.601 302.158 346.347 290.537C353.07 278.955 358.264 266.433 361.8 253.375C368.873 227.258 368.964 199.695 362.068 173.717C355.054 147.669 341.369 123.763 322.394 104.661C303.42 85.5583 279.621 71.743 253.504 64.6701C227.426 57.6203 199.864 57.5298 173.862 64.4649C147.798 71.4167 123.932 85.1246 104.766 104.116C95.2204 113.686 86.9685 124.326 80.2457 135.908Z" fill="url(#paint3_linear_744_2872)"/>
<path d="M88.2114 135.477C90.4003 136.747 91.1516 139.578 89.881 141.767C88.6104 143.956 85.7798 144.707 83.5909 143.436C81.402 142.166 80.6109 139.312 81.8815 137.123C83.1753 134.894 85.9827 134.183 88.2114 135.477Z" fill="url(#paint4_radial_744_2872)"/>
<path d="M72.2011 170.666C74.6569 171.293 76.1065 173.837 75.4162 176.31C74.7489 178.743 72.2445 180.215 69.7489 179.565C67.3161 178.897 65.8434 176.393 66.5338 173.921C67.2241 171.448 69.7683 169.998 72.2011 170.666Z" fill="url(#paint5_radial_744_2872)"/>
<path d="M65.8626 208.809C68.3967 208.843 70.4548 210.889 70.4602 213.446C70.4656 216.003 68.3798 218.038 65.8226 218.044C63.2654 218.049 61.2305 215.963 61.225 213.406C61.2594 210.872 63.3452 208.837 65.8626 208.809Z" fill="url(#paint6_radial_744_2872)"/>
<path d="M69.6238 247.334C72.077 246.683 74.624 248.161 75.2354 250.591C75.8634 253.084 74.408 255.592 71.9548 256.243C69.5017 256.894 66.9944 255.438 66.3433 252.985C65.7152 250.492 67.1707 247.985 69.6238 247.334Z" fill="url(#paint7_radial_744_2872)"/>
<path d="M83.2426 283.546C85.4658 282.283 88.2632 283.055 89.4868 285.255C90.7503 287.479 89.9778 290.276 87.7776 291.5C85.5941 292.786 82.7737 292.054 81.4705 289.807C80.2866 287.63 81.0193 284.81 83.2426 283.546Z" fill="url(#paint8_radial_744_2872)"/>
<path d="M105.758 314.973C107.539 313.187 110.467 313.184 112.293 314.989C114.119 316.794 114.082 319.699 112.277 321.525C110.456 323.287 107.567 323.313 105.742 321.509C103.956 319.727 103.953 316.799 105.758 314.973Z" fill="url(#paint9_radial_744_2872)"/>
<path d="M135.648 339.561C136.919 337.372 139.749 336.621 141.938 337.892C144.127 339.162 144.878 341.993 143.608 344.182C142.337 346.371 139.507 347.122 137.318 345.851C135.089 344.558 134.378 341.75 135.648 339.561Z" fill="url(#paint10_radial_744_2872)"/>
<path d="M170.86 355.532C171.55 353.059 174.094 351.61 176.527 352.277C178.96 352.944 180.433 355.449 179.782 357.944C179.092 360.417 176.587 361.89 174.115 361.199C171.682 360.532 170.17 358.004 170.86 355.532Z" fill="url(#paint11_radial_744_2872)"/>
<path d="M209.003 361.87C208.998 359.313 211.083 357.278 213.641 357.272C216.175 357.307 218.233 359.353 218.261 361.87C218.267 364.427 216.181 366.462 213.624 366.468C211.067 366.473 209.009 364.427 209.003 361.87Z" fill="url(#paint12_radial_744_2872)"/>
<path d="M247.489 358.085C246.877 355.655 248.333 353.148 250.769 352.434C253.262 351.806 255.769 353.261 256.421 355.714C257.009 358.184 255.553 360.691 253.14 361.366C250.687 362.017 248.18 360.561 247.489 358.085Z" fill="url(#paint13_radial_744_2872)"/>
<path d="M283.718 344.53C282.455 342.306 283.187 339.486 285.41 338.222C287.634 336.959 290.431 337.731 291.695 339.955C292.981 342.138 292.185 344.975 289.962 346.239C287.802 347.486 285.004 346.713 283.718 344.53Z" fill="url(#paint14_radial_744_2872)"/>
<path d="M315.145 322.015C313.359 320.233 313.356 317.305 315.161 315.48C316.942 313.694 319.871 313.691 321.657 315.472C323.482 317.277 323.445 320.182 321.641 322.008C319.899 323.817 316.971 323.82 315.145 322.015Z" fill="url(#paint15_radial_744_2872)"/>
<path d="M355.704 256.912C353.231 256.222 351.821 253.701 352.488 251.268C353.156 248.835 355.66 247.362 358.133 248.053C360.605 248.743 362.055 251.287 361.388 253.72C360.704 256.09 358.176 257.602 355.704 256.912Z" fill="url(#paint16_radial_744_2872)"/>
<path d="M362.065 218.729C359.507 218.735 357.473 216.649 357.467 214.092C357.462 211.535 359.547 209.5 362.105 209.494C364.662 209.489 366.697 211.575 366.662 214.109C366.668 216.666 364.622 218.724 362.065 218.729Z" fill="url(#paint17_radial_744_2872)"/>
<path d="M358.28 180.244C355.827 180.895 353.279 179.416 352.628 176.963C352.017 174.533 353.496 171.986 355.886 171.352C358.379 170.723 360.886 172.179 361.537 174.632C362.211 177.045 360.733 179.592 358.28 180.244Z" fill="url(#paint18_radial_744_2872)"/>
<path d="M344.701 144.054C342.501 145.278 339.68 144.545 338.394 142.362C337.13 140.139 337.903 137.341 340.086 136.055C342.309 134.791 345.107 135.564 346.393 137.747C347.657 139.97 346.884 142.768 344.701 144.054Z" fill="url(#paint19_radial_744_2872)"/>
<path d="M322.169 112.565C320.364 114.39 317.459 114.353 315.634 112.549C313.871 110.727 313.868 107.799 315.65 106.013C317.471 104.25 320.399 104.247 322.185 106.029C323.988 107.874 323.951 110.779 322.169 112.565Z" fill="url(#paint20_radial_744_2872)"/>
<path d="M292.296 88.0398C291.025 90.2287 288.218 90.9403 286.029 89.6696C283.84 88.399 283.088 85.5684 284.336 83.4193C285.607 81.2304 288.437 80.4791 290.626 81.7498C292.815 83.0204 293.589 85.8111 292.296 88.0398Z" fill="url(#paint21_radial_744_2872)"/>
<path d="M257.067 72.0063C256.4 74.439 253.895 75.9117 251.4 75.2612C248.927 74.5708 247.494 72.0895 248.145 69.5939C248.812 67.1611 251.356 65.7115 253.789 66.3788C256.324 67.0524 257.734 69.5735 257.067 72.0063Z" fill="url(#paint22_radial_744_2872)"/>
<path d="M218.901 65.7075C218.906 68.2646 216.82 70.2996 214.263 70.305C211.729 70.2707 209.694 68.1848 209.705 65.6905C209.7 63.1334 211.786 61.0984 214.303 61.0699C216.877 61.1274 218.935 63.1734 218.901 65.7075Z" fill="url(#paint23_radial_744_2872)"/>
<path d="M180.415 69.4925C181.067 71.9456 179.611 74.4529 177.158 75.1041C174.705 75.7552 172.198 74.2997 171.546 71.8466C170.895 69.3935 172.374 66.8464 174.804 66.235C177.24 65.521 179.787 66.9996 180.415 69.4925Z" fill="url(#paint24_radial_744_2872)"/>
<path d="M144.226 83.0711C145.489 85.2944 144.757 88.1148 142.533 89.3783C140.31 90.6417 137.513 89.8692 136.226 87.6858C134.963 85.4625 135.735 82.6652 137.896 81.4184C140.102 80.0921 142.963 80.8478 144.226 83.0711Z" fill="url(#paint25_radial_744_2872)"/>
<path d="M112.759 105.563C114.585 107.368 114.548 110.273 112.766 112.059C110.985 113.845 108.056 113.847 106.271 112.066C104.445 110.261 104.482 107.356 106.286 105.53C108.045 103.784 110.973 103.781 112.759 105.563Z" fill="url(#paint26_radial_744_2872)"/>
<path d="M339.732 292.124C337.543 290.854 336.792 288.023 338.062 285.834C339.333 283.645 342.163 282.894 344.352 284.165C346.541 285.435 347.292 288.266 346.022 290.455C344.751 292.644 341.921 293.395 339.732 292.124Z" fill="url(#paint27_radial_744_2872)"/>
<defs>
<linearGradient id="paint0_linear_744_2872" x1="135.819" y1="346.713" x2="290.779" y2="79.7669" gradientUnits="userSpaceOnUse">
<stop stop-color="#DE9200"/>
<stop offset="0.0735" stop-color="#EAAB25"/>
<stop offset="0.2066" stop-color="#FFD665"/>
<stop offset="0.2198" stop-color="#FFD86D"/>
<stop offset="0.2398" stop-color="#FFDD81"/>
<stop offset="0.2641" stop-color="#FEE6A3"/>
<stop offset="0.2915" stop-color="#FEF2D2"/>
<stop offset="0.3104" stop-color="#FDFCF7"/>
<stop offset="0.3912" stop-color="#FFD665"/>
<stop offset="0.5284" stop-color="#793400"/>
<stop offset="1" stop-color="#FFD665"/>
</linearGradient>
<linearGradient id="paint1_linear_744_2872" x1="134.984" y1="348.168" x2="291.63" y2="78.3181" gradientUnits="userSpaceOnUse">
<stop stop-color="#E8A95A"/>
<stop offset="0.4981" stop-color="#FFFAA6"/>
<stop offset="1" stop-color="#E8A95A"/>
</linearGradient>
<linearGradient id="paint2_linear_744_2872" x1="135.819" y1="346.713" x2="290.779" y2="79.7669" gradientUnits="userSpaceOnUse">
<stop stop-color="#DE9200"/>
<stop offset="0.0735" stop-color="#EAAB25"/>
<stop offset="0.2066" stop-color="#FFD665"/>
<stop offset="0.2198" stop-color="#FFD86D"/>
<stop offset="0.2398" stop-color="#FFDD81"/>
<stop offset="0.2641" stop-color="#FEE6A3"/>
<stop offset="0.2915" stop-color="#FEF2D2"/>
<stop offset="0.3104" stop-color="#FDFCF7"/>
<stop offset="0.3912" stop-color="#FFD665"/>
<stop offset="0.5284" stop-color="#793400"/>
<stop offset="1" stop-color="#FFD665"/>
</linearGradient>
<linearGradient id="paint3_linear_744_2872" x1="135.577" y1="347.138" x2="291.018" y2="79.362" gradientUnits="userSpaceOnUse">
<stop stop-color="#E8A95A"/>
<stop offset="0.4981" stop-color="#FFFAA6"/>
<stop offset="1" stop-color="#E8A95A"/>
</linearGradient>
<radialGradient id="paint4_radial_744_2872" cx="0" cy="0" r="1" gradientUnits="userSpaceOnUse" gradientTransform="translate(85.8748 139.438) rotate(-59.8652) scale(4.60544)">
<stop stop-color="white"/>
<stop offset="0.4089" stop-color="#E2E3E4"/>
<stop offset="0.7062" stop-color="#D1D3D4"/>
<stop offset="1" stop-color="#231F20"/>
</radialGradient>
<radialGradient id="paint5_radial_744_2872" cx="0" cy="0" r="1" gradientUnits="userSpaceOnUse" gradientTransform="translate(71.0041 175.123) rotate(-74.8629) scale(4.60286)">
<stop stop-color="white"/>
<stop offset="0.4089" stop-color="#E2E3E4"/>
<stop offset="0.7062" stop-color="#D1D3D4"/>
<stop offset="1" stop-color="#231F20"/>
</radialGradient>
<radialGradient id="paint6_radial_744_2872" cx="0" cy="0" r="1" gradientUnits="userSpaceOnUse" gradientTransform="translate(65.873 213.433) rotate(-89.8649) scale(4.60816)">
<stop stop-color="white"/>
<stop offset="0.4089" stop-color="#E2E3E4"/>
<stop offset="0.7062" stop-color="#D1D3D4"/>
<stop offset="1" stop-color="#231F20"/>
</radialGradient>
<radialGradient id="paint7_radial_744_2872" cx="0" cy="0" r="1" gradientUnits="userSpaceOnUse" gradientTransform="translate(70.8244 251.781) rotate(-104.865) scale(4.60511)">
<stop stop-color="white"/>
<stop offset="0.4089" stop-color="#E2E3E4"/>
<stop offset="0.7062" stop-color="#D1D3D4"/>
<stop offset="1" stop-color="#231F20"/>
</radialGradient>
<radialGradient id="paint8_radial_744_2872" cx="0" cy="0" r="1" gradientUnits="userSpaceOnUse" gradientTransform="translate(85.5227 287.525) rotate(-119.866) scale(4.5997)">
<stop stop-color="white"/>
<stop offset="0.4089" stop-color="#E2E3E4"/>
<stop offset="0.7062" stop-color="#D1D3D4"/>
<stop offset="1" stop-color="#231F20"/>
</radialGradient>
<radialGradient id="paint9_radial_744_2872" cx="0" cy="0" r="1" gradientUnits="userSpaceOnUse" gradientTransform="translate(108.994 318.263) rotate(-134.868) scale(4.60831)">
<stop stop-color="white"/>
<stop offset="0.4089" stop-color="#E2E3E4"/>
<stop offset="0.7062" stop-color="#D1D3D4"/>
<stop offset="1" stop-color="#231F20"/>
</radialGradient>
<radialGradient id="paint10_radial_744_2872" cx="0" cy="0" r="1" gradientUnits="userSpaceOnUse" gradientTransform="translate(139.611 341.87) rotate(-149.865) scale(4.60665)">
<stop stop-color="white"/>
<stop offset="0.4089" stop-color="#E2E3E4"/>
<stop offset="0.7062" stop-color="#D1D3D4"/>
<stop offset="1" stop-color="#231F20"/>
</radialGradient>
<radialGradient id="paint11_radial_744_2872" cx="0" cy="0" r="1" gradientUnits="userSpaceOnUse" gradientTransform="translate(175.291 356.749) rotate(-164.863) scale(4.61314 4.61314)">
<stop stop-color="white"/>
<stop offset="0.4089" stop-color="#E2E3E4"/>
<stop offset="0.7062" stop-color="#D1D3D4"/>
<stop offset="1" stop-color="#231F20"/>
</radialGradient>
<radialGradient id="paint12_radial_744_2872" cx="0" cy="0" r="1" gradientUnits="userSpaceOnUse" gradientTransform="translate(213.621 361.88) rotate(-179.865) scale(4.60997 4.60997)">
<stop stop-color="white"/>
<stop offset="0.4089" stop-color="#E2E3E4"/>
<stop offset="0.7062" stop-color="#D1D3D4"/>
<stop offset="1" stop-color="#231F20"/>
</radialGradient>
<radialGradient id="paint13_radial_744_2872" cx="0" cy="0" r="1" gradientUnits="userSpaceOnUse" gradientTransform="translate(251.958 356.927) rotate(165.135) scale(4.61599)">
<stop stop-color="white"/>
<stop offset="0.4089" stop-color="#E2E3E4"/>
<stop offset="0.7062" stop-color="#D1D3D4"/>
<stop offset="1" stop-color="#231F20"/>
</radialGradient>
<radialGradient id="paint14_radial_744_2872" cx="0" cy="0" r="1" gradientUnits="userSpaceOnUse" gradientTransform="translate(287.717 342.215) rotate(150.134) scale(4.60212 4.60212)">
<stop stop-color="white"/>
<stop offset="0.4089" stop-color="#E2E3E4"/>
<stop offset="0.7062" stop-color="#D1D3D4"/>
<stop offset="1" stop-color="#231F20"/>
</radialGradient>
<radialGradient id="paint15_radial_744_2872" cx="0" cy="0" r="1" gradientUnits="userSpaceOnUse" gradientTransform="translate(318.444 318.767) rotate(135.132) scale(4.60468)">
<stop stop-color="white"/>
<stop offset="0.4089" stop-color="#E2E3E4"/>
<stop offset="0.7062" stop-color="#D1D3D4"/>
<stop offset="1" stop-color="#231F20"/>
</radialGradient>
<radialGradient id="paint16_radial_744_2872" cx="0" cy="0" r="1" gradientUnits="userSpaceOnUse" gradientTransform="translate(356.938 252.461) rotate(105.137) scale(4.61012 4.61011)">
<stop stop-color="white"/>
<stop offset="0.4089" stop-color="#E2E3E4"/>
<stop offset="0.7062" stop-color="#D1D3D4"/>
<stop offset="1" stop-color="#231F20"/>
</radialGradient>
<radialGradient id="paint17_radial_744_2872" cx="0" cy="0" r="1" gradientUnits="userSpaceOnUse" gradientTransform="translate(362.06 214.14) rotate(90.1351) scale(4.60151 4.60152)">
<stop stop-color="white"/>
<stop offset="0.4089" stop-color="#E2E3E4"/>
<stop offset="0.7062" stop-color="#D1D3D4"/>
<stop offset="1" stop-color="#231F20"/>
</radialGradient>
<radialGradient id="paint18_radial_744_2872" cx="0" cy="0" r="1" gradientUnits="userSpaceOnUse" gradientTransform="translate(357.103 175.795) rotate(75.1349) scale(4.60934)">
<stop stop-color="white"/>
<stop offset="0.4089" stop-color="#E2E3E4"/>
<stop offset="0.7062" stop-color="#D1D3D4"/>
<stop offset="1" stop-color="#231F20"/>
</radialGradient>
<radialGradient id="paint19_radial_744_2872" cx="0" cy="0" r="1" gradientUnits="userSpaceOnUse" gradientTransform="translate(342.388 140.048) rotate(60.1345) scale(4.6142 4.61421)">
<stop stop-color="white"/>
<stop offset="0.4089" stop-color="#E2E3E4"/>
<stop offset="0.7062" stop-color="#D1D3D4"/>
<stop offset="1" stop-color="#231F20"/>
</radialGradient>
<radialGradient id="paint20_radial_744_2872" cx="0" cy="0" r="1" gradientUnits="userSpaceOnUse" gradientTransform="translate(318.923 109.31) rotate(45.1325) scale(4.61314)">
<stop stop-color="white"/>
<stop offset="0.4089" stop-color="#E2E3E4"/>
<stop offset="0.7062" stop-color="#D1D3D4"/>
<stop offset="1" stop-color="#231F20"/>
</radialGradient>
<radialGradient id="paint21_radial_744_2872" cx="0" cy="0" r="1" gradientUnits="userSpaceOnUse" gradientTransform="translate(288.316 85.7006) rotate(30.1348) scale(4.6006 4.60062)">
<stop stop-color="white"/>
<stop offset="0.4089" stop-color="#E2E3E4"/>
<stop offset="0.7062" stop-color="#D1D3D4"/>
<stop offset="1" stop-color="#231F20"/>
</radialGradient>
<radialGradient id="paint22_radial_744_2872" cx="0" cy="0" r="1" gradientUnits="userSpaceOnUse" gradientTransform="translate(252.63 70.8291) rotate(15.1371) scale(4.60831 4.6083)">
<stop stop-color="white"/>
<stop offset="0.4089" stop-color="#E2E3E4"/>
<stop offset="0.7062" stop-color="#D1D3D4"/>
<stop offset="1" stop-color="#231F20"/>
</radialGradient>
<radialGradient id="paint23_radial_744_2872" cx="0" cy="0" r="1" gradientUnits="userSpaceOnUse" gradientTransform="translate(214.308 65.6973) rotate(0.135103) scale(4.60695 4.60695)">
<stop stop-color="white"/>
<stop offset="0.4089" stop-color="#E2E3E4"/>
<stop offset="0.7062" stop-color="#D1D3D4"/>
<stop offset="1" stop-color="#231F20"/>
</radialGradient>
<radialGradient id="paint24_radial_744_2872" cx="0" cy="0" r="1" gradientUnits="userSpaceOnUse" gradientTransform="translate(175.971 70.649) rotate(-14.8653) scale(4.59785)">
<stop stop-color="white"/>
<stop offset="0.4089" stop-color="#E2E3E4"/>
<stop offset="0.7062" stop-color="#D1D3D4"/>
<stop offset="1" stop-color="#231F20"/>
</radialGradient>
<radialGradient id="paint25_radial_744_2872" cx="0" cy="0" r="1" gradientUnits="userSpaceOnUse" gradientTransform="translate(140.221 85.3633) rotate(-29.8656) scale(4.60514 4.60514)">
<stop stop-color="white"/>
<stop offset="0.4089" stop-color="#E2E3E4"/>
<stop offset="0.7062" stop-color="#D1D3D4"/>
<stop offset="1" stop-color="#231F20"/>
</radialGradient>
<radialGradient id="paint26_radial_744_2872" cx="0" cy="0" r="1" gradientUnits="userSpaceOnUse" gradientTransform="translate(109.487 108.823) rotate(-44.8675) scale(4.60648 4.60649)">
<stop stop-color="white"/>
<stop offset="0.4089" stop-color="#E2E3E4"/>
<stop offset="0.7062" stop-color="#D1D3D4"/>
<stop offset="1" stop-color="#231F20"/>
</radialGradient>
<radialGradient id="paint27_radial_744_2872" cx="0" cy="0" r="1" gradientUnits="userSpaceOnUse" gradientTransform="translate(342.043 288.142) rotate(120.135) scale(4.60121)">
<stop stop-color="white"/>
<stop offset="0.4089" stop-color="#E2E3E4"/>
<stop offset="0.7062" stop-color="#D1D3D4"/>
<stop offset="1" stop-color="#231F20"/>
</radialGradient>
</defs>
</svg>
